<?xml version="1.0" encoding="iso-8859-1"?>
<!-- Generator: Adobe Illustrator 19.0.0, SVG Export Plug-In . SVG Version: 6.00 Build 0)  -->
<svg version="1.1" id="Layer_1" xmlns="http://www.w3.org/2000/svg" xmlns:xlink="http://www.w3.org/1999/xlink" x="0px" y="0px"
	 viewBox="0 0 512 512" style="enable-background:new 0 0 512 512;" xml:space="preserve">
<g>
	<path style="fill:#B169BF;" d="M256,256.001L256,256.001L256,256.001z"/>
	<path style="fill:#B169BF;" d="M256,256.001L256,256.001L256,256.001z"/>
	<path style="fill:#B169BF;" d="M256,256.001L256,256.001L256,256.001z"/>
	<path style="fill:#B169BF;" d="M256,256.001L256,256.001L256,256.001z"/>
	<path style="fill:#B169BF;" d="M256,256.001L256,256.001L256,256.001z"/>
	<path style="fill:#B169BF;" d="M256,256.001L256,256.001L256,256.001z"/>
	<path style="fill:#B169BF;" d="M256,256.001L256,256.001L256,256.001z"/>
	<path style="fill:#B169BF;" d="M256,256.001L256,256.001L256,256.001z"/>
	<path style="fill:#B169BF;" d="M256,256.001L256,256.001L256,256.001z"/>
	<path style="fill:#B169BF;" d="M256,256.001L256,256.001L256,256.001z"/>
</g>
<g>
	<polygon style="fill:#FD5E95;" points="256,256.001 503.982,299.727 503.982,212.275 	"/>
	<polygon style="fill:#FD5E95;" points="256,256.001 256,503.983 346.258,503.983 	"/>
</g>
<polygon style="fill:#B169BF;" points="8.018,399.173 8.018,503.983 47.918,503.983 256,256.001 "/>
<polygon style="fill:#FD5E95;" points="256,256.001 47.918,503.983 165.742,503.983 "/>
<g>
	<polygon style="fill:#B169BF;" points="256,256.001 8.018,212.275 8.018,299.727 	"/>
	<polygon style="fill:#B169BF;" points="256,256.001 165.742,503.983 256,503.983 	"/>
</g>
<polygon style="fill:#FD5E95;" points="256,256.001 8.018,299.727 8.018,399.173 "/>
<polygon style="fill:#B169BF;" points="256,256.001 256,256.001 503.982,399.173 503.982,299.727 "/>
<polygon style="fill:#FD5E95;" points="464.082,503.983 503.982,503.983 503.982,399.173 256,256.001 "/>
<g>
	<polygon style="fill:#B169BF;" points="256,256.001 346.258,503.983 464.082,503.983 	"/>
	<polygon style="fill:#B169BF;" points="464.082,8.019 346.258,8.019 256,256.001 	"/>
	<polygon style="fill:#B169BF;" points="256,256.001 503.982,212.275 503.982,112.829 	"/>
</g>
<g>
	<polygon style="fill:#FD5E95;" points="256,256.001 503.982,112.829 503.982,8.019 464.082,8.019 	"/>
	<polygon style="fill:#FD5E95;" points="346.258,8.019 256,8.019 256,256.001 	"/>
</g>
<polygon style="fill:#B169BF;" points="256,256.001 47.918,8.019 8.018,8.019 8.018,112.829 "/>
<g>
	<polygon style="fill:#FD5E95;" points="256,256.001 8.018,112.829 8.018,212.275 	"/>
	<polygon style="fill:#FD5E95;" points="165.742,8.019 47.918,8.019 256,256.001 	"/>
</g>
<polygon style="fill:#B169BF;" points="256,8.019 165.742,8.019 256,256.001 "/>
<g>
	<polygon style="fill:#F9D84E;" points="187.591,273.103 161.938,361.058 136.285,273.103 67.876,273.103 127.733,478.33 
		196.142,478.33 256,273.103 	"/>
	<polygon style="fill:#F9D84E;" points="187.591,273.103 161.938,361.058 136.285,273.103 67.876,273.103 127.733,478.33 
		196.142,478.33 256,273.103 	"/>
</g>
<polygon style="fill:#FFC20D;" points="67.876,273.103 127.733,478.33 144.836,478.33 84.978,273.103 "/>
<polygon style="fill:#F9D84E;" points="136.285,179.041 136.285,33.672 67.876,33.672 67.876,238.899 136.285,238.899 
	221.796,238.899 221.796,179.041 "/>
<polygon style="fill:#FFC20D;" points="153.387,221.797 84.978,221.797 84.978,33.672 67.876,33.672 67.876,238.899 
	136.285,238.899 221.796,238.899 221.796,221.797 "/>
<polygon style="fill:#F9D84E;" points="444.125,332.961 444.125,273.103 290.205,273.103 290.205,478.33 444.125,478.33 
	444.125,418.472 358.613,418.472 358.613,392.819 392.818,392.819 392.818,358.615 358.613,358.615 358.613,332.961 "/>
<polygon style="fill:#FFC20D;" points="307.307,461.228 307.307,273.103 290.205,273.103 290.205,478.33 444.125,478.33 
	444.125,461.228 "/>
<path style="fill:#F9D84E;" d="M341.511,33.672c-56.671,0-102.613,45.942-102.613,102.613s45.942,102.613,102.613,102.613
	s102.613-45.942,102.613-102.613S398.184,33.672,341.511,33.672z M341.511,179.041c-23.613,0-42.756-19.143-42.756-42.756
	s19.143-42.756,42.756-42.756c23.613,0,42.756,19.143,42.756,42.756S365.125,179.041,341.511,179.041z"/>
<path style="fill:#FFC20D;" d="M256,136.286c0-53.792,41.393-97.91,94.062-102.256c-2.82-0.233-5.67-0.357-8.551-0.357
	c-56.671,0-102.613,45.942-102.613,102.613s45.942,102.613,102.613,102.613c2.881,0,5.731-0.125,8.551-0.357
	C297.393,234.196,256,190.077,256,136.286z"/>
<path style="fill:#45CAE0;" d="M256,228.927c-43.112-38.124-74.109,1.146-74.109,34.204c0,48.1,74.109,85.511,74.109,85.511
	s74.109-37.411,74.109-85.511C330.109,230.073,299.112,190.803,256,228.927z"/>
<path style="fill:#0AADBF;" d="M201.844,263.132c0-20.094,11.453-42.479,30.117-48.389c-30.132-8.62-50.07,21.877-50.07,48.389
	c0,48.1,74.109,85.511,74.109,85.511s3.931-1.986,9.976-5.624C245.759,330.851,201.844,300.161,201.844,263.132z"/>
<circle style="fill:#8DECF2;" cx="290.203" cy="264.55" r="17.102"/>
<path d="M256,419.541c-4.428,0-8.017,3.588-8.017,8.017v76.426c0,4.428,3.588,8.017,8.017,8.017c4.428,0,8.017-3.588,8.017-8.017
	v-76.426C264.017,423.131,260.428,419.541,256,419.541z"/>
<path d="M507.991,392.231l-88.773-51.253h24.907c4.428,0,8.017-3.588,8.017-8.017v-34.235l50.448,8.896
	c4.358,0.772,8.628-2.28,9.31-6.651c0.665-4.258-2.275-8.39-6.526-9.139l-53.234-9.387v-9.342c0-4.428-3.588-8.017-8.017-8.017
	H338.081c0.024-0.65,0.044-1.301,0.044-1.955c0-4.489-0.464-8.93-1.337-13.236l168.586-29.727c4.36-0.769,7.272-4.926,6.502-9.287
	c-0.77-4.36-4.924-7.275-9.286-6.502l-88.896,15.675c19.619-16.929,33.248-40.618,37.236-67.412
	c0.283-0.123,0.564-0.254,0.839-0.413l56.222-32.46c3.834-2.214,5.148-7.117,2.934-10.951c-2.215-3.835-7.118-5.147-10.951-2.934
	l-47.868,27.637c-0.637-25.869-10.203-49.56-25.719-68.111l43.835-52.24c2.808-3.347,2.358-8.486-0.988-11.294
	c-3.347-2.809-8.485-2.358-11.294,0.988l-42.762,50.961c-18-16.097-41.279-26.4-66.886-27.957l5.499-15.109
	c1.515-4.161-0.631-8.761-4.791-10.275c-4.162-1.511-8.762,0.632-10.275,4.791l-7.596,20.87
	c-26.025,2.434-49.457,13.918-67.112,31.268V8.019c0-4.428-3.588-8.017-8.017-8.017c-4.428,0-8.017,3.588-8.017,8.017v69.122
	c0,0.037,0.005,0.074,0.005,0.111c-10.829,17.095-17.108,37.344-17.108,59.034c0,29.258,11.487,57.003,31.819,77.628
	c-2.185,1.349-4.419,2.881-6.7,4.627c-2.581-1.976-5.099-3.672-7.555-5.142c0.019-0.962-75.171-208.122-75.171-208.122
	c-1.515-4.16-6.114-6.304-10.275-4.791c-4.16,1.515-6.305,6.115-4.791,10.275l58.331,160.264h-21.379
	c0,0-50.356-59.878-50.86-60.249V33.672c0-4.428-3.588-8.017-8.017-8.017H73.159c-0.073-0.095-0.139-0.193-0.216-0.286L54.059,2.866
	c-2.845-3.391-7.902-3.836-11.294-0.988c-3.392,2.845-3.834,7.902-0.988,11.294l18.081,21.549v98.781l-47.833-27.616
	c-3.836-2.214-8.738-0.901-10.951,2.934c-2.214,3.834-0.9,8.737,2.934,10.951l55.44,32.008c0.134,0.077,0.273,0.133,0.409,0.201
	v61.295L9.411,204.38c-4.365-0.772-8.518,2.143-9.287,6.502c-0.77,4.361,2.142,8.519,6.502,9.286l53.234,9.386v9.343
	c0,4.428,3.588,8.017,8.017,8.017h108.019c-1.247,4.976-1.943,10.162-2.006,15.424l-31.535,5.56
	c-1.489-1.735-3.674-2.813-6.068-2.813H67.877c-5.254,0-9.17,5.212-7.696,10.261l1.954,6.698l-55.507,9.788
	c-4.243,0.748-7.2,4.882-6.526,9.139c0.693,4.366,4.946,7.425,9.31,6.651l57.239-10.094l14.613,50.101L4.009,392.231
	c-3.487,2.014-4.956,6.462-3.338,10.153c1.891,4.314,7.265,6.094,11.355,3.733l73.857-42.642l17.919,61.437L41.778,498.83
	c-2.584,3.078-2.45,7.751,0.321,10.668c3.252,3.424,8.925,3.256,11.961-0.361l55.142-65.715l10.836,37.154
	c0.998,3.42,4.133,5.772,7.696,5.772h35.896l-5.421,14.895c-1.415,3.889,0.461,8.35,4.237,10.05c4.199,1.89,9.258-0.245,10.83-4.566
	l7.417-20.378h15.45c3.563,0,6.699-2.352,7.696-5.772l38.099-130.629c2.348,1.408,4.396,2.58,6.046,3.496v39.377
	c0,4.428,3.588,8.017,8.017,8.017c4.428,0,8.017-3.588,8.017-8.017v-39.377c4.094-2.275,10.631-6.111,18.171-11.279v136.168
	c0,4.428,3.588,8.017,8.017,8.017h41.103l7.417,20.378c1.572,4.322,6.631,6.455,10.83,4.566c3.776-1.7,5.652-6.161,4.236-10.05
	l-5.421-14.895h90.447l0.44,0.525l0,0l18.682,22.265c3.036,3.617,8.709,3.785,11.961,0.361c2.771-2.917,2.904-7.589,0.321-10.668
	l-18.081-21.549v-58.809c0-4.428-3.588-8.017-8.017-8.017h-77.494v-9.62h26.188c4.428,0,8.017-3.588,8.017-8.017v-34.204
	c0-4.428-3.588-8.017-8.017-8.017h-26.188v-9.62h23.73c0.657,1.538,109.614,65.138,109.614,65.138
	c4.091,2.36,9.463,0.583,11.355-3.733C512.947,398.694,511.477,394.245,507.991,392.231z M246.915,136.286
	c0-52.161,42.436-94.597,94.597-94.597s94.597,42.436,94.597,94.597s-42.436,94.597-94.597,94.597
	c-3.861,0-7.752-0.235-11.562-0.699c-0.196-0.024-0.39-0.031-0.584-0.041c-5.517-9.564-13.326-17.207-22.52-21.35
	c-5.986-2.698-15.811-5.257-28.291-1.907C258.41,188.916,246.915,163.355,246.915,136.286z M261.311,234.932
	c9.933-8.786,24.753-17.917,38.947-11.522c12.448,5.608,21.835,22.686,21.835,39.721c0,36.891-51.804,68.41-66.097,76.403
	c-3.198-1.784-8.273-4.746-14.222-8.676c-0.077-0.053-0.154-0.105-0.233-0.155c-20.655-13.686-51.635-38.978-51.635-67.572
	c0-17.036,9.387-34.113,21.835-39.721c3.319-1.495,6.672-2.142,9.99-2.142c10.866,0,21.347,6.933,28.957,13.664
	C253.722,237.615,258.278,237.615,261.311,234.932z M176.771,281.571l-3.885,13.322c-0.457,0.161-0.907,0.361-1.343,0.612
	l-17.438,10.068l-6.508-22.317l28.354-4.999c0.278,1.024,0.583,2.041,0.912,3.051C176.834,281.396,176.798,281.48,176.771,281.571z
	 M166.45,316.96l-4.511,15.467l-3.211-11.009L166.45,316.96z M174.231,171.024h-29.93v-35.669L174.231,171.024z M75.892,230.882
	V41.689h52.376v137.352c0,4.428,3.588,8.017,8.017,8.017h85.511c0.192,0,0.381-0.015,0.57-0.029l6.889,18.927
	c-10.492-1.829-18.801,0.448-24.098,2.837c-9.429,4.248-17.395,12.182-22.932,22.09L75.892,230.882L75.892,230.882z M190.13,470.313
	h-56.384l-13.339-45.731c-0.002-0.01-0.005-0.018-0.009-0.028L78.563,281.12h51.708l23.97,82.182
	c0.998,3.42,4.133,5.772,7.696,5.772c3.563,0,6.699-2.352,7.696-5.772l17.835-61.149c11.104,16.05,27.082,29.341,40.424,38.683
	L190.13,470.313z M358.613,324.945c-4.428,0-8.017,3.588-8.017,8.017v25.653c0,4.428,3.588,8.017,8.017,8.017h26.188v18.171h-26.188
	c-4.428,0-8.017,3.588-8.017,8.017v25.653c0,4.428,3.588,8.017,8.017,8.017h77.494v43.824H298.221V330.11
	c0-0.011-0.001-0.02-0.001-0.03c15.3-12.727,30.71-29.536,36.977-48.96h100.911v43.824L358.613,324.945L358.613,324.945z"/>
<path d="M341.511,187.058c27.995,0,50.772-22.777,50.772-50.772s-22.777-50.772-50.772-50.772
	c-27.995,0-50.772,22.777-50.772,50.772S313.516,187.058,341.511,187.058z M341.511,171.024c-1.211,0-2.408-0.063-3.587-0.185
	l36.988-44.08c0.866,3.029,1.338,6.222,1.338,9.526C376.25,155.441,360.667,171.024,341.511,171.024z M341.511,101.547
	c9.724,0,18.522,4.02,24.832,10.479l-44.417,52.932c-9.142-6.264-15.155-16.778-15.155-28.674
	C306.772,117.13,322.356,101.547,341.511,101.547z"/>
<g>
</g>
<g>
</g>
<g>
</g>
<g>
</g>
<g>
</g>
<g>
</g>
<g>
</g>
<g>
</g>
<g>
</g>
<g>
</g>
<g>
</g>
<g>
</g>
<g>
</g>
<g>
</g>
<g>
</g>
</svg>
