<?xml version="1.0" standalone="no"?>
<!DOCTYPE svg PUBLIC "-//W3C//DTD SVG 20010904//EN"
 "http://www.w3.org/TR/2001/REC-SVG-20010904/DTD/svg10.dtd">
<svg version="1.0" xmlns="http://www.w3.org/2000/svg"
 width="640.000000pt" height="1280.000000pt" viewBox="0 0 640.000000 1280.000000"
 preserveAspectRatio="xMidYMid meet">
<metadata>
Created by potrace 1.15, written by Peter Selinger 2001-2017
</metadata>
<g transform="translate(0.000000,1280.000000) scale(0.100000,-0.100000)"
fill="#000000" stroke="none">
<path d="M206 12789 c-16 -4 -33 -14 -37 -21 -37 -60 -3 -398 40 -398 20 0 11
-25 -11 -35 -70 -31 -50 -321 28 -414 l25 -30 -23 -32 c-20 -27 -23 -42 -22
-122 1 -156 70 -338 198 -514 36 -51 66 -95 66 -99 0 -4 -20 12 -45 35 -25 23
-61 49 -81 58 -36 17 -36 17 -56 -6 -15 -19 -18 -33 -13 -65 22 -139 106 -300
244 -465 34 -40 60 -76 56 -79 -3 -3 -27 15 -53 39 -96 92 -132 107 -181 73
-73 -52 57 -287 231 -418 77 -58 75 -71 -4 -27 -67 38 -102 40 -123 7 -29 -43
13 -141 94 -220 l50 -49 -25 -36 c-13 -20 -24 -44 -24 -54 0 -30 28 -88 65
-132 l34 -42 -26 -25 -26 -26 31 -44 c26 -35 31 -52 30 -93 -1 -41 6 -65 37
-123 21 -40 51 -84 68 -98 41 -35 171 -99 261 -129 104 -35 272 -61 291 -45
12 10 18 10 30 0 61 -51 -78 -36 -368 39 -175 45 -195 48 -237 26 -37 -19 -45
-46 -25 -85 38 -73 143 -120 325 -144 276 -37 431 -69 451 -92 15 -18 10 -18
-60 6 -150 50 -571 68 -635 27 -58 -39 -11 -89 123 -131 131 -41 252 -56 531
-66 323 -11 428 -19 437 -32 4 -7 -23 -8 -78 -4 -122 9 -601 26 -759 26 -139
0 -202 -10 -233 -38 -24 -21 -22 -36 13 -76 61 -69 78 -71 422 -68 170 1 308
-1 308 -5 0 -5 -53 -9 -118 -10 -213 -3 -456 -20 -487 -34 -68 -30 -84 -68
-42 -107 41 -39 110 -45 412 -39 153 3 273 2 265 -3 -8 -4 -69 -13 -135 -20
-255 -25 -431 -66 -470 -110 -17 -18 -17 -21 0 -46 9 -14 38 -35 63 -47 41
-19 65 -22 197 -22 165 1 287 20 364 59 83 41 60 63 -26 24 -43 -20 -69 -22
-261 -26 -187 -3 -216 -2 -238 13 -24 15 -24 18 -10 34 24 26 130 49 356 77
74 9 137 18 140 19 11 7 33 -13 26 -23 -6 -10 -65 -22 -206 -42 -119 -17 -128
-20 -108 -31 12 -6 58 -5 135 5 65 8 150 16 188 18 l70 3 3 -31 c3 -27 -2 -34
-34 -53 -44 -26 -223 -64 -377 -81 -127 -13 -147 -19 -176 -56 -29 -36 -26
-61 8 -93 59 -55 156 -64 280 -28 118 35 104 47 -51 44 -159 -2 -206 14 -164
56 18 18 197 56 299 64 l77 6 0 -30 c0 -17 -9 -41 -19 -54 -10 -14 -28 -40
-38 -59 -17 -30 -27 -36 -65 -41 -24 -4 -84 -26 -134 -50 -101 -50 -121 -78
-92 -127 30 -50 153 -67 177 -25 5 10 11 12 15 5 12 -20 -7 -43 -55 -68 -45
-22 -49 -27 -49 -60 0 -66 65 -120 107 -89 37 29 37 13 -1 -19 -31 -27 -38
-38 -33 -57 7 -28 54 -59 89 -59 14 0 27 -3 30 -6 8 -7 -33 -128 -60 -180 -20
-38 -26 -86 -49 -388 -5 -55 17 -184 48 -282 5 -17 9 -211 9 -440 1 -470 12
-739 35 -843 19 -82 52 -127 112 -155 l38 -17 1 -137 c1 -76 9 -184 18 -242
55 -336 69 -383 148 -486 33 -44 94 -130 134 -191 41 -62 79 -113 84 -113 28
0 33 66 39 470 5 325 10 420 21 440 16 31 20 800 6 1390 -8 349 -4 550 13 550
7 0 76 -147 222 -471 79 -175 89 -206 103 -300 42 -285 68 -784 68 -1304 1
-512 -15 -694 -121 -1445 -22 -151 -47 -329 -56 -394 -23 -174 -92 -477 -132
-586 -20 -52 -68 -162 -108 -245 -95 -198 -183 -315 -342 -456 -51 -45 -51
-45 -162 -58 -61 -7 -115 -10 -121 -6 -9 6 107 85 124 85 4 0 6 -9 6 -20 0
-16 26 -40 44 -40 9 0 7 46 -4 75 -16 41 -35 40 -103 -4 -35 -23 -73 -41 -85
-41 -20 0 -22 5 -22 69 l0 68 -71 5 c-76 6 -114 25 -136 69 -16 30 -18 225 -2
234 5 4 22 4 37 0 26 -6 26 -7 8 -21 -11 -7 -17 -16 -14 -20 9 -8 229 -64 254
-64 12 0 29 -11 38 -25 23 -35 46 -31 102 15 27 23 75 55 107 72 68 37 147
119 147 154 0 24 -23 33 -35 14 -8 -12 -42 -13 -49 -1 -3 4 13 36 36 71 74
115 118 253 84 266 -9 3 -27 -1 -41 -10 -31 -20 -55 -21 -55 -1 0 53 -88 169
-171 226 -32 22 -59 43 -59 47 0 4 14 24 30 44 54 65 84 145 85 220 0 42 4 68
11 68 6 0 45 -31 88 -70 42 -38 83 -70 90 -70 19 0 26 23 26 88 -1 108 -63
238 -172 361 -29 32 -65 78 -80 102 -14 24 -58 80 -97 125 -98 112 -166 157
-187 122 -11 -17 -6 -127 12 -267 9 -70 14 -165 12 -215 -5 -109 -22 -151
-103 -246 -58 -68 -67 -90 -36 -90 22 0 165 51 229 82 24 11 46 17 50 14 11
-11 -36 -89 -82 -137 -23 -24 -71 -71 -106 -104 -34 -33 -69 -75 -77 -92 -7
-18 -16 -33 -19 -33 -2 0 -23 9 -45 20 -23 12 -49 18 -59 15 -11 -4 -37 -40
-60 -83 -22 -43 -68 -113 -103 -157 -84 -107 -118 -158 -156 -232 l-31 -62 0
-173 c0 -329 47 -486 192 -647 149 -166 187 -194 311 -232 53 -16 67 -24 63
-35 -3 -9 -6 -17 -6 -19 0 -2 -31 -15 -69 -29 -77 -30 -114 -63 -109 -96 3
-21 9 -23 78 -24 55 -1 87 -8 120 -24 62 -31 120 -73 120 -87 0 -20 -41 -66
-67 -76 -60 -23 32 -69 102 -51 33 9 46 7 80 -10 55 -28 149 -88 156 -101 4
-5 0 -29 -9 -52 -8 -23 -13 -49 -9 -58 9 -24 90 -33 119 -13 12 9 28 16 34 16
17 0 34 -54 35 -109 1 -25 4 -59 8 -76 6 -28 9 -30 56 -30 l50 0 3 -55 c3 -59
14 -80 43 -80 32 0 83 55 94 101 6 24 19 47 30 53 11 5 32 18 48 28 27 19 27
19 27 -5 0 -31 43 -75 84 -85 21 -6 44 -4 74 7 l43 16 34 -40 c28 -34 37 -38
52 -29 24 14 52 97 53 156 0 79 26 111 32 41 4 -56 37 -57 90 -4 38 39 40 44
36 86 -7 62 -48 111 -117 143 -65 29 -66 30 -58 38 3 3 46 -12 95 -35 128 -59
223 -81 352 -81 67 0 126 6 159 16 29 8 62 14 74 12 21 -3 20 -5 -12 -33 -95
-82 -104 -92 -96 -104 11 -18 80 -6 198 34 66 23 97 30 97 21 0 -6 -5 -17 -12
-24 -15 -15 7 -42 36 -42 12 0 58 13 102 29 84 30 270 68 282 57 3 -4 -8 -18
-26 -32 -18 -14 -32 -30 -32 -35 0 -19 82 -8 152 20 40 15 87 31 103 35 l30 8
-27 -29 c-64 -67 -19 -69 139 -8 64 25 118 43 120 41 3 -2 0 -13 -6 -24 -12
-22 2 -42 30 -42 16 0 116 42 182 76 16 7 33 14 38 14 5 0 20 -23 34 -50 35
-69 61 -78 144 -51 76 24 83 21 117 -55 30 -69 49 -87 76 -73 33 18 49 70 39
126 -5 26 -13 56 -17 66 -6 16 -2 17 45 11 46 -6 55 -4 91 21 32 22 60 31 135
40 93 12 125 25 125 50 0 14 -58 45 -83 45 -24 0 -47 11 -42 20 3 4 24 5 49 3
49 -6 66 8 44 35 -15 19 -31 52 -44 96 -11 35 -64 66 -115 66 -20 0 -57 6 -83
14 -58 18 -84 10 -121 -36 l-26 -33 -142 1 c-136 0 -197 11 -197 33 0 27 152
94 265 118 73 15 85 23 85 62 0 60 66 131 136 145 44 10 69 37 93 101 42 111
73 135 174 135 l64 0 5 73 c5 78 34 149 67 167 11 5 33 10 50 10 16 0 33 5 36
11 4 6 -1 42 -11 80 -17 65 -17 72 -1 117 24 69 31 126 18 151 -16 29 -28 19
-36 -32 -3 -23 -13 -67 -22 -97 l-16 -55 -13 75 c-6 41 -17 87 -23 102 -16 43
-81 108 -106 108 -28 0 -39 -13 -55 -65 -19 -60 -65 -148 -89 -169 -12 -11
-21 -15 -21 -10 0 18 48 125 63 142 22 24 21 34 -3 81 -24 49 -70 87 -121 102
-24 8 -49 24 -61 42 l-21 29 -74 -81 c-41 -45 -78 -81 -83 -81 -13 0 -23 122
-11 150 8 22 10 18 10 -27 1 -52 13 -74 28 -51 4 7 8 56 8 108 l0 95 40 18
c51 24 74 45 73 65 0 10 3 25 7 34 10 24 -15 23 -57 -1 -37 -22 -117 -43 -131
-34 -13 8 14 23 44 23 31 0 114 51 129 80 18 34 3 36 -27 3 -33 -35 -90 -56
-153 -57 -33 -1 -70 11 -140 43 -54 26 -114 46 -143 49 l-48 5 24 26 c37 39
41 65 21 122 l-18 51 24 18 c21 16 26 30 30 87 l6 68 16 -36 c9 -20 23 -70 31
-111 24 -114 55 -185 101 -233 75 -78 176 -85 223 -17 43 64 42 187 -1 239
-13 16 -26 46 -29 68 -4 22 -11 63 -16 90 -6 28 -10 104 -10 170 0 103 2 123
18 142 28 33 60 30 74 -7 6 -17 17 -30 23 -30 20 0 67 -61 162 -212 50 -79
102 -154 115 -166 17 -16 46 -26 93 -33 38 -6 73 -15 78 -19 5 -5 13 -74 18
-154 9 -147 23 -216 45 -224 10 -3 11 14 6 72 -4 50 -2 76 4 76 20 0 120 -146
172 -248 42 -84 42 -124 -1 -85 -17 15 -18 15 -18 -3 0 -10 12 -55 26 -99 16
-52 23 -91 19 -112 -9 -51 13 -49 38 4 18 39 22 65 22 143 -1 145 -45 244
-185 414 -68 82 -68 82 -78 166 -13 102 -24 115 -116 124 -35 4 -71 13 -79 19
-8 7 -48 64 -89 127 -126 195 -267 353 -343 385 -274 118 -294 114 -179 -34
71 -93 78 -120 34 -153 -14 -10 -42 -21 -62 -24 -35 -6 -38 -4 -52 27 -264
602 -246 544 -256 829 -5 129 -12 274 -16 322 -3 48 -4 88 -1 88 3 0 29 -14
56 -32 62 -38 56 -40 216 79 187 139 323 257 402 345 98 111 232 296 300 415
136 236 266 580 322 850 31 149 31 148 -34 172 -145 54 -598 181 -647 181 -12
0 -21 13 -28 43 -6 23 -28 92 -47 152 -35 106 -36 117 -44 312 -6 185 -16 250
-45 328 -5 12 2 15 35 15 39 0 43 3 58 37 11 28 14 54 9 100 -19 183 -136 390
-286 505 -24 19 -30 27 -18 28 26 0 129 -101 208 -205 96 -126 184 -204 251
-220 55 -13 74 61 43 166 -65 220 -276 468 -387 457 -31 -3 -29 -5 54 -59 128
-84 223 -213 278 -377 12 -34 21 -78 21 -97 l0 -36 -31 18 c-38 22 -376 376
-391 409 -18 39 -2 39 53 0 28 -21 53 -36 55 -33 8 8 -61 100 -98 130 -34 27
-47 46 -76 112 -3 6 5 1 17 -9 15 -14 43 -21 94 -25 101 -9 144 -37 321 -213
82 -81 159 -151 170 -154 29 -10 66 37 66 84 0 112 -135 277 -340 415 -41 28
-69 52 -63 54 11 4 102 -46 323 -178 63 -38 129 -71 147 -75 28 -5 34 -3 44
19 36 79 -175 293 -354 359 -58 21 -60 23 -30 26 24 2 85 -21 230 -88 221
-102 243 -109 263 -86 18 23 -1 78 -54 159 -71 108 -251 206 -418 227 -92 11
-98 20 -14 20 81 0 176 -34 311 -111 181 -104 195 -110 222 -107 62 7 29 92
-73 189 -92 87 -328 218 -416 232 -21 3 -38 4 -38 1 0 -2 36 -22 79 -44 232
-116 411 -256 411 -319 0 -6 -17 1 -37 15 -21 14 -113 63 -205 107 -174 86
-198 107 -128 117 l35 5 -43 18 c-23 9 -49 17 -57 17 -8 0 -25 14 -37 31 -13
17 -54 51 -92 76 -37 24 -66 46 -64 49 3 2 29 -7 59 -20 30 -14 83 -30 119
-36 36 -7 106 -31 156 -55 203 -97 355 -148 375 -128 19 19 3 40 -34 46 -19 3
-116 37 -215 76 -99 39 -188 71 -196 71 -19 0 -38 41 -26 54 5 5 34 -1 70 -14
33 -12 63 -20 67 -17 6 7 -119 70 -157 80 -26 7 -26 23 0 37 19 10 32 6 90
-30 8 -5 40 -20 70 -33 75 -32 232 -131 270 -168 29 -29 60 -34 60 -9 0 35
-165 157 -251 185 -43 15 -74 35 -52 35 10 0 140 -42 201 -64 24 -9 76 -17
116 -19 81 -2 106 9 106 49 0 32 -59 96 -110 119 -22 10 -40 22 -40 26 0 5 28
8 63 7 99 -3 159 42 143 106 -8 32 -95 66 -190 74 -82 6 -84 -9 -4 -29 131
-31 175 -72 98 -92 -55 -14 -284 -1 -375 22 -44 11 -109 23 -145 27 -101 10
-65 -11 106 -62 204 -62 414 -156 414 -186 0 -29 -431 51 -452 84 -15 25 -8
31 30 24 140 -26 147 -14 17 29 -83 27 -152 62 -175 90 -8 10 -25 21 -39 26
-17 7 -21 13 -14 20 8 8 38 7 102 -2 69 -10 94 -10 103 -1 8 8 8 15 -2 27 -7
8 -10 18 -7 21 3 3 45 7 94 9 98 3 305 37 374 60 90 31 155 110 124 152 -18
25 -132 22 -239 -6 -133 -35 -121 -42 46 -28 70 6 131 8 134 4 23 -23 -86 -81
-204 -108 -104 -24 -392 -39 -392 -21 0 14 23 19 120 27 108 8 200 25 200 37
0 8 -34 9 -105 4 -70 -4 -105 -3 -105 4 0 5 6 10 14 10 18 0 227 70 366 122
118 45 164 75 187 123 33 69 -5 81 -120 41 -69 -25 -123 -54 -114 -62 3 -3 37
6 76 20 74 26 97 21 65 -15 -22 -25 -119 -70 -269 -126 -66 -25 -137 -54 -159
-65 -31 -16 -40 -17 -47 -6 -16 24 -9 38 26 55 19 9 35 25 37 36 4 26 28 35
29 10 0 -16 2 -16 15 4 13 17 22 20 51 16 32 -5 35 -4 31 18 -3 21 5 27 57 50
33 14 114 54 180 89 167 89 257 177 223 217 -29 35 -142 -1 -483 -154 -150
-67 -187 -78 -214 -64 -30 16 -26 24 18 42 53 22 351 210 351 220 0 15 -7 11
-108 -49 -53 -33 -142 -82 -197 -111 -55 -29 -104 -56 -110 -62 -11 -11 -65
-12 -65 -1 0 4 5 13 12 20 15 15 10 15 -31 1 -34 -12 -170 -3 -155 10 5 5 59
13 121 19 133 12 159 23 370 150 181 110 459 254 480 250 12 -2 4 -17 -31 -57
-25 -30 -46 -58 -46 -62 0 -4 -50 -48 -110 -99 -61 -50 -110 -93 -110 -95 0
-9 91 35 147 71 92 58 149 110 193 176 57 86 52 128 -16 128 -38 0 -234 -98
-434 -217 -203 -120 -249 -145 -262 -141 -6 2 11 17 38 33 87 50 238 159 227
162 -13 5 -69 -22 -78 -36 -3 -5 -52 -35 -109 -65 -81 -44 -114 -56 -147 -56
l-44 0 52 29 c105 58 244 161 386 285 73 64 85 90 15 33 -71 -57 -408 -278
-442 -289 -17 -6 -39 -17 -48 -26 -16 -13 -176 -37 -186 -27 -6 6 57 36 109
51 26 8 61 26 77 39 17 14 36 25 44 25 34 0 213 127 508 360 216 171 442 311
466 287 10 -10 -87 -157 -145 -220 -30 -32 -96 -89 -145 -126 -50 -38 -100
-78 -111 -91 -11 -12 -53 -47 -92 -76 -40 -30 -73 -61 -73 -69 0 -8 3 -15 6
-15 35 0 355 243 447 340 116 121 192 247 185 306 -4 41 -33 42 -120 1 -148
-68 -269 -148 -476 -313 -70 -55 -173 -134 -228 -176 -56 -42 -118 -96 -139
-120 -30 -35 -36 -38 -30 -18 14 49 46 88 102 125 31 21 84 61 118 89 34 28
104 80 156 116 257 177 579 578 644 802 37 128 -32 165 -149 81 -28 -20 -214
-199 -414 -397 -199 -197 -365 -356 -368 -353 -4 3 68 84 159 179 231 242 275
298 233 298 -13 0 -88 -81 -191 -205 -27 -33 -118 -130 -202 -217 -84 -86
-153 -161 -153 -166 0 -21 39 2 74 44 35 41 56 55 56 35 0 -4 -27 -38 -60 -74
-63 -69 -72 -87 -41 -87 23 0 144 114 604 567 196 194 362 353 369 353 22 0
-2 -94 -51 -194 -74 -154 -167 -285 -279 -391 -53 -51 -115 -110 -136 -131
-21 -21 -60 -54 -85 -73 -25 -19 -73 -59 -107 -90 -64 -60 -146 -121 -194
-146 -16 -8 -33 -21 -37 -29 -8 -13 -173 -33 -173 -20 0 3 11 19 25 36 38 46
41 73 15 177 -21 80 -22 95 -10 99 24 8 135 120 127 128 -4 4 -32 -19 -62 -52
-45 -48 -57 -56 -65 -44 -21 32 -9 51 105 170 100 106 237 276 465 580 165
220 335 431 415 515 103 109 58 -73 -74 -299 -35 -61 -75 -131 -88 -156 -13
-25 -34 -54 -47 -65 -13 -11 -34 -36 -47 -55 -12 -19 -49 -68 -82 -108 -46
-57 -55 -73 -43 -78 19 -7 66 21 66 40 0 8 10 20 23 29 33 22 165 188 236 297
107 164 171 315 171 403 0 38 -25 84 -50 92 -12 4 -31 -1 -48 -14 -64 -45
-277 -284 -382 -428 -13 -18 -25 -31 -27 -29 -5 5 58 112 139 234 156 237 228
404 253 589 10 67 14 138 11 158 -9 47 -42 61 -104 45 -25 -6 -46 -9 -48 -7
-2 2 1 19 6 38 29 101 -6 175 -88 186 -41 5 -45 3 -86 -39 -53 -55 -122 -188
-221 -428 -109 -262 -199 -431 -370 -695 -148 -229 -149 -230 -160 -310 l-11
-80 -13 60 c-16 77 -31 115 -45 115 -20 0 -84 -98 -220 -339 -149 -262 -256
-427 -495 -761 -114 -160 -161 -233 -161 -253 0 -20 20 -51 78 -118 43 -49 98
-123 122 -164 245 -430 150 -1090 -195 -1352 -80 -61 -190 -113 -237 -113 -22
0 -85 19 -147 44 -61 24 -134 49 -163 56 -137 32 -132 55 25 128 166 77 335
230 402 367 61 123 78 207 79 395 1 154 -1 171 -27 252 -15 47 -38 102 -51
121 -13 19 -29 52 -36 73 -27 80 -171 203 -322 273 -113 53 -183 71 -313 78
-241 13 -449 -61 -622 -222 -212 -196 -313 -495 -257 -763 39 -190 137 -337
314 -472 42 -32 81 -65 89 -74 12 -14 11 -16 -8 -16 -75 0 -279 185 -369 333
-76 127 -109 352 -77 522 34 185 106 317 244 455 132 131 253 199 449 252 114
31 327 31 435 0 138 -39 250 -105 347 -202 198 -198 293 -497 246 -769 -49
-280 -224 -504 -502 -641 -63 -32 -83 -46 -68 -48 28 -4 139 33 184 61 19 12
48 29 64 37 41 21 148 140 212 235 109 165 153 297 161 486 11 254 -64 461
-231 636 -115 122 -216 186 -376 239 -80 27 -95 28 -265 28 -204 1 -289 -15
-414 -78 -176 -89 -369 -280 -445 -439 -72 -152 -104 -415 -72 -577 35 -174
132 -327 278 -443 48 -38 88 -75 88 -83 0 -7 -37 -44 -82 -82 -104 -86 -196
-186 -215 -230 -13 -31 -15 -33 -31 -18 -20 17 -102 167 -102 185 0 26 35 7
86 -45 60 -61 85 -67 38 -9 -83 104 -84 105 -83 164 1 99 9 103 61 30 46 -64
118 -140 118 -125 0 5 -15 25 -33 45 -31 34 -103 132 -142 194 -37 57 3 23 65
-55 88 -112 140 -168 156 -168 27 0 13 36 -36 94 -55 64 -200 269 -226 318
-50 96 -118 275 -143 376 -16 65 -32 124 -36 133 -4 12 2 15 30 15 67 0 117
76 94 144 -13 37 -39 52 -99 60 l-44 5 2 55 c4 87 30 155 80 211 l44 49 -4 68
-4 67 -167 258 c-92 142 -222 340 -290 440 -172 256 -214 324 -297 477 -87
160 -136 240 -149 240 -17 0 -23 -64 -20 -190 2 -66 1 -120 -3 -120 -3 0 -21
27 -40 60 -69 125 -228 306 -228 261 0 -10 157 -220 199 -266 52 -57 88 -124
100 -186 7 -33 10 -63 8 -65 -18 -18 -541 686 -936 1261 -85 124 -181 366
-181 458 0 48 26 62 49 26 9 -13 34 -44 57 -69 62 -68 412 -565 684 -970 132
-198 245 -362 250 -365 17 -11 19 13 5 61 -16 53 -189 331 -666 1067 -47 73
-116 168 -155 212 -38 44 -77 92 -87 107 -27 44 -86 63 -141 47z m5695 -66 c4
-48 -5 -116 -26 -199 -34 -133 -155 -454 -240 -635 -40 -86 -76 -166 -80 -178
-3 -12 -17 -41 -31 -64 -13 -23 -24 -49 -24 -58 0 -9 -18 -38 -39 -65 -21 -27
-71 -103 -111 -169 -112 -184 -114 -189 -106 -211 7 -18 9 -17 29 9 12 15 82
126 155 245 143 235 294 531 392 766 69 168 96 224 145 301 32 49 68 76 83 61
8 -8 -35 -224 -60 -306 -48 -151 -247 -529 -505 -960 -62 -103 -98 -153 -228
-315 -62 -77 -121 -158 -132 -179 -20 -39 -21 -39 -32 -17 -24 44 -4 100 55
157 39 37 54 59 54 78 0 18 7 29 23 35 29 11 77 64 153 171 71 100 129 195
139 230 4 14 18 36 30 50 27 29 149 269 142 277 -7 6 -44 -53 -82 -127 -55
-109 -291 -494 -333 -542 -21 -24 -32 -22 -32 5 0 36 -15 50 -44 43 -14 -3
-37 -9 -51 -12 l-26 -6 30 48 c87 143 261 450 261 461 0 30 -19 8 -65 -74 -26
-49 -88 -152 -136 -230 -101 -164 -120 -198 -117 -214 2 -7 -12 -21 -31 -32
l-34 -20 5 64 c4 63 7 68 233 444 216 359 333 578 405 760 36 91 148 319 188
382 29 46 41 53 43 26z m-5544 -656 c234 -342 799 -1077 961 -1250 79 -85 91
-110 69 -135 -11 -12 -17 -36 -17 -65 0 -26 -4 -47 -10 -47 -5 0 -10 5 -10 11
0 6 -53 70 -118 142 -160 180 -207 236 -292 352 -40 55 -108 143 -150 195 -91
113 -383 501 -463 616 -79 113 -118 201 -125 279 -6 76 1 103 23 85 8 -6 67
-89 132 -183z m-74 -241 c-10 -51 118 -248 340 -526 82 -102 157 -201 167
-221 10 -19 40 -58 67 -85 26 -27 84 -92 128 -143 44 -52 155 -167 248 -256
92 -90 167 -166 167 -169 0 -61 -369 292 -618 591 -139 167 -172 203 -172 189
0 -8 150 -197 256 -322 56 -66 193 -209 305 -317 112 -108 196 -197 187 -197
-8 0 -28 -10 -43 -22 l-28 -21 12 22 c14 26 25 15 -277 296 -338 314 -521 527
-650 752 -104 184 -150 368 -106 431 19 28 22 28 17 -2z m4687 -604 c0 -196
-87 -481 -182 -600 -40 -49 -70 -94 -98 -145 -11 -21 -32 -42 -45 -47 -14 -5
-25 -16 -25 -23 0 -7 -17 -23 -37 -34 -21 -12 -75 -53 -119 -92 -76 -66 -104
-83 -104 -63 0 5 26 37 58 72 31 35 50 60 42 55 -24 -14 -190 -168 -190 -176
0 -4 10 -9 23 -11 21 -4 19 -7 -20 -46 -24 -22 -43 -45 -43 -49 0 -5 24 -43
53 -84 29 -42 69 -112 89 -155 209 -447 131 -1161 -156 -1432 -65 -62 -145
-102 -201 -102 -22 0 -51 -7 -64 -16 -16 -12 -26 -13 -34 -5 -8 8 0 15 29 26
141 57 243 130 316 225 49 65 143 257 159 326 6 27 18 64 26 83 36 86 36 411
-1 605 -30 156 -130 357 -229 460 l-58 61 23 45 c13 24 54 87 92 140 329 452
516 736 630 958 27 50 52 92 57 92 5 0 9 -31 9 -68z m-3552 -72 c32 -63 162
-270 288 -460 364 -546 433 -664 437 -747 1 -32 -5 -48 -30 -76 -63 -72 -96
-234 -57 -278 14 -15 13 -20 -16 -52 -19 -22 -55 -45 -96 -61 l-66 -27 -42 44
c-42 42 -82 123 -74 149 3 7 20 -12 40 -43 38 -59 90 -109 114 -109 19 0 9 17
-28 49 -16 13 -38 41 -48 61 -21 41 -37 120 -25 120 4 0 26 -20 49 -45 24 -25
50 -45 59 -45 21 0 22 14 1 31 -8 7 -24 30 -35 50 -31 62 -22 91 16 49 21 -23
55 -27 55 -6 0 7 -8 24 -19 37 -47 61 -63 117 -37 138 10 9 22 4 51 -19 56
-45 116 -54 123 -20 4 22 -185 230 -209 230 -10 0 -19 5 -19 10 0 6 5 10 11
10 15 0 -8 35 -93 143 -39 48 -75 87 -82 87 -7 0 -18 11 -24 24 -6 14 -26 42
-45 63 -31 34 -87 116 -87 127 0 2 9 2 20 -1 34 -9 23 19 -35 85 -61 71 -89
117 -79 133 4 7 15 2 29 -11 49 -46 44 -12 -10 70 -55 84 -85 154 -71 167 12
12 67 -51 148 -172 45 -66 104 -149 132 -185 27 -36 51 -67 53 -69 2 -2 5 -2
8 0 2 3 -25 50 -61 104 -156 236 -263 404 -283 442 -19 38 -41 135 -28 123 3
-3 32 -57 65 -120z m-1019 -57 c25 -21 168 -158 317 -304 268 -264 355 -340
507 -446 70 -50 77 -58 77 -89 0 -40 -5 -41 -46 -11 -157 113 -294 224 -369
297 -92 88 -142 127 -151 118 -6 -7 218 -219 302 -286 134 -107 234 -194 243
-210 6 -12 5 -26 -5 -42 -7 -14 -13 -20 -14 -14 0 7 -78 71 -173 142 -258 195
-544 478 -606 601 -13 24 -42 74 -66 111 -106 165 -111 210 -16 133z m4759
-65 c-29 -50 -163 -195 -173 -186 -12 11 29 160 45 168 8 3 42 20 75 37 33 17
63 29 68 26 4 -2 -3 -23 -15 -45z m-4048 -243 c32 -38 57 -72 54 -75 -5 -5
-76 71 -116 124 -41 55 4 20 62 -49z m3918 -100 c3 -71 0 -85 -27 -139 -18
-36 -54 -84 -88 -117 -51 -49 -91 -80 -231 -175 -18 -12 -29 -25 -25 -27 32
-20 228 106 334 215 42 43 79 78 83 78 10 0 7 -91 -4 -132 -15 -54 -54 -95
-124 -130 -125 -63 -259 -158 -244 -173 3 -3 74 28 159 70 190 93 349 146 349
117 0 -25 -137 -120 -323 -224 -59 -34 -110 -65 -113 -69 -3 -5 82 -8 188 -7
188 3 258 -4 258 -23 0 -5 -11 -14 -26 -19 -37 -15 -267 -51 -356 -57 l-78 -5
0 38 c0 30 -8 46 -45 85 -38 41 -45 54 -45 89 0 50 -19 89 -60 124 -31 26 -90
36 -90 16 0 -5 17 -21 38 -35 22 -14 45 -36 52 -50 18 -33 5 -73 -25 -81 -13
-3 -29 -12 -36 -20 -13 -16 -7 -19 53 -29 45 -7 98 -54 98 -87 0 -29 -24 -54
-63 -63 -35 -9 -30 -25 12 -40 48 -16 84 -61 76 -94 -6 -25 -33 -55 -57 -63
-6 -2 4 -24 26 -52 55 -72 47 -112 -27 -144 l-29 -12 32 -36 c56 -64 64 -120
28 -184 -22 -38 -22 -40 -5 -69 31 -53 18 -96 -46 -150 l-28 -24 29 -31 c40
-42 54 -73 47 -97 -8 -23 -61 -49 -100 -49 -30 0 -32 -13 -4 -51 31 -44 36
-92 10 -118 -11 -11 -33 -23 -48 -27 -55 -12 -56 -12 -48 -47 22 -89 -3 -137
-71 -137 l-34 0 0 -49 c0 -60 -22 -81 -86 -81 -50 0 -55 -4 -41 -40 16 -42
-12 -70 -68 -70 -35 0 -44 -4 -53 -25 -15 -32 -28 -32 -88 6 -27 18 -65 38
-84 47 -31 13 -33 15 -17 27 10 7 35 16 55 20 148 27 368 251 439 445 9 25 29
78 44 117 37 95 54 277 46 503 -9 259 -54 422 -174 624 -54 92 -58 103 -45
121 4 6 87 79 184 163 180 155 258 241 338 370 25 39 48 71 53 72 13 0 -38
-91 -92 -164 -28 -39 -49 -72 -47 -74 10 -9 46 21 84 71 46 59 138 208 147
239 14 42 30 10 33 -67z m-4563 -57 c61 -42 146 -110 405 -328 80 -67 192
-155 250 -195 58 -40 114 -82 125 -92 18 -16 18 -18 3 -21 -20 -4 -148 77
-287 182 -53 40 -118 87 -146 106 -47 31 -49 32 -25 6 55 -60 348 -282 439
-333 38 -21 52 -43 27 -43 -43 0 -272 146 -466 296 -183 141 -440 411 -440
461 0 23 45 8 115 -39z m530 -28 c28 -29 41 -48 30 -42 -11 6 -42 34 -70 62
-27 29 -41 48 -30 42 11 -6 43 -34 70 -62z m446 18 c37 -92 168 -276 319 -448
98 -112 150 -178 150 -192 0 -4 -8 -8 -19 -8 -11 0 -21 -9 -24 -21 -5 -20 -7
-20 -29 -5 -37 26 -245 265 -294 337 -71 108 -106 197 -129 332 -7 46 8 49 26
5z m3 -300 c-9 -14 -44 27 -44 51 1 12 7 9 25 -12 14 -16 22 -33 19 -39z m5
-80 c76 -53 221 -189 221 -209 0 -6 -4 -7 -10 -4 -5 3 -10 2 -10 -4 0 -5 38
-42 84 -81 124 -103 128 -116 14 -45 -40 25 -77 45 -82 45 -16 0 34 -48 91
-87 29 -20 53 -40 53 -45 0 -12 -3 -11 -72 24 -46 24 -99 68 -199 168 -136
135 -171 183 -184 253 -10 50 2 48 94 -15z m-858 -32 c24 -13 137 -85 252
-160 114 -75 210 -136 213 -136 3 0 31 -17 62 -39 31 -21 72 -46 91 -55 23
-13 30 -21 23 -28 -14 -14 -133 42 -234 109 -100 67 -168 106 -175 99 -3 -3
22 -22 56 -43 144 -89 329 -211 335 -222 18 -28 -36 -4 -188 83 -90 52 -197
117 -239 144 -154 105 -305 240 -292 262 10 17 50 11 96 -14z m357 -174 c29
-19 50 -37 47 -40 -6 -6 -142 85 -152 102 -7 11 4 5 105 -62z m462 -37 c39
-47 96 -104 125 -126 46 -34 59 -40 85 -34 34 7 42 -10 9 -20 -11 -4 -45 -27
-75 -51 -29 -24 -60 -44 -67 -44 -27 0 -104 79 -135 139 -39 72 -59 164 -43
198 6 13 15 23 20 23 6 0 42 -38 81 -85z m1806 44 l34 -21 26 21 c30 23 65 27
97 10 12 -7 49 -13 84 -13 55 -1 66 -5 95 -32 25 -24 45 -33 80 -37 55 -5 71
-16 105 -70 16 -26 29 -37 39 -33 36 14 83 -39 93 -102 5 -31 12 -39 41 -48
44 -14 60 -44 60 -116 0 -46 4 -59 19 -68 27 -14 35 -42 38 -130 1 -41 5 -97
9 -123 4 -36 2 -59 -11 -88 -13 -27 -16 -50 -11 -80 6 -35 2 -51 -25 -102 -17
-33 -37 -78 -45 -100 -8 -23 -31 -55 -54 -75 -23 -19 -49 -51 -59 -71 -26 -50
-49 -68 -101 -78 -33 -6 -48 -15 -57 -33 -17 -34 -51 -60 -78 -60 -13 0 -49
-13 -80 -30 -31 -16 -61 -30 -66 -30 -19 0 -8 58 19 101 39 61 88 97 216 158
181 87 261 186 236 293 -5 24 -10 72 -10 108 -1 92 -24 190 -61 260 -42 78
-145 176 -230 217 -112 54 -176 66 -329 60 -166 -6 -201 -18 -316 -109 -56
-44 -98 -70 -122 -74 -89 -16 -117 -48 -131 -149 -10 -71 -11 -73 -74 -117
-39 -27 -60 -83 -54 -143 3 -32 1 -57 -5 -63 -29 -29 7 -143 54 -176 50 -35
51 -8 3 45 -24 27 -35 49 -35 70 0 34 23 37 28 3 1 -10 5 -30 8 -44 l6 -25 9
23 c9 23 43 30 54 12 13 -21 25 3 25 48 0 59 16 90 60 119 19 12 43 30 52 39
18 18 27 16 78 -15 8 -5 29 -15 45 -22 l30 -12 -40 -8 c-22 -4 -57 -15 -77
-23 -21 -9 -51 -16 -68 -16 -24 0 -33 -6 -40 -26 -20 -50 -4 -77 18 -31 10 19
11 16 9 -23 -2 -43 -4 -45 -34 -48 -41 -4 -73 -43 -73 -88 0 -25 9 -45 34 -72
43 -46 56 -36 28 22 -24 47 -27 71 -12 81 5 3 38 3 74 -1 l64 -7 -17 -46 -16
-46 -3 38 c-3 36 -18 49 -28 24 -6 -16 22 -96 41 -117 13 -14 12 -20 -3 -50
-21 -44 -46 -49 -80 -17 -15 14 -51 37 -80 51 -52 26 -65 43 -77 99 -4 20 -17
33 -53 50 l-47 23 0 61 c0 51 -4 66 -24 87 -21 23 -23 32 -18 82 5 47 3 62
-14 82 -25 32 -24 57 2 93 18 26 20 38 14 90 -7 59 -7 60 29 94 34 31 35 36
30 79 -8 52 0 66 57 101 29 19 36 29 36 56 0 39 50 89 89 89 20 0 29 9 45 45
22 51 43 65 92 65 25 0 41 8 60 30 28 30 42 35 109 31 32 -2 43 3 72 33 38 41
64 45 112 15z m-2441 -179 c106 -62 368 -205 484 -263 14 -7 26 -18 29 -26 7
-22 -34 -7 -211 75 -157 73 -210 91 -125 42 24 -14 100 -56 171 -93 124 -66
147 -85 107 -85 -86 0 -472 218 -587 332 -45 44 -56 116 -16 101 10 -3 77 -41
148 -83z m5085 81 c0 -16 -77 -78 -151 -122 -41 -23 -156 -83 -256 -131 -100
-49 -186 -96 -191 -105 -9 -15 -13 -14 -42 10 -18 16 -44 27 -60 27 -16 0 -32
4 -35 10 -6 10 10 15 82 24 63 9 198 53 283 94 103 48 66 54 -54 8 -92 -36
-136 -44 -136 -26 0 15 36 30 280 123 258 98 280 104 280 88z m-853 -141 c164
-27 268 -68 249 -99 -4 -6 -23 -11 -41 -11 -19 0 -66 -5 -104 -12 -59 -10 -80
-9 -148 6 -43 9 -98 20 -122 24 -41 7 -45 10 -57 52 -10 34 -10 46 -1 52 20
13 96 9 224 -12z m-3307 -55 c35 -18 37 -26 13 -48 -21 -19 -116 -67 -132 -67
-21 0 -32 49 -19 78 24 49 84 65 138 37z m-323 -46 c42 -37 161 -106 196 -115
26 -6 55 -40 43 -51 -3 -3 -26 2 -52 11 -26 9 -49 14 -51 12 -6 -5 54 -41 100
-60 37 -15 50 -36 23 -36 -26 0 -290 150 -318 180 -33 36 -45 75 -28 95 14 17
36 8 87 -36z m-535 -68 c79 -39 177 -83 218 -100 194 -78 213 -87 204 -103 -9
-14 -63 -2 -136 31 -65 29 -157 69 -221 96 -21 8 -37 11 -37 6 0 -11 146 -82
318 -156 84 -36 112 -52 112 -66 0 -16 -16 -11 -122 32 -296 121 -518 254
-518 310 0 32 32 23 182 -50z m2666 30 c119 -40 174 -72 240 -139 58 -61 64
-75 27 -66 -35 9 -33 -15 5 -54 23 -24 30 -41 30 -70 0 -36 -14 -62 -32 -62
-4 0 -8 21 -8 46 0 42 -3 47 -30 57 -26 10 -31 19 -41 70 -7 32 -21 69 -31 83
-20 24 -76 59 -84 51 -2 -2 9 -21 26 -42 60 -75 63 -156 6 -171 -51 -12 -62 6
-69 110 -6 108 -17 136 -52 136 -21 0 -25 -5 -25 -30 0 -16 9 -51 19 -78 l20
-49 -52 -21 c-55 -23 -92 -28 -101 -13 -3 5 1 28 9 51 16 45 19 88 9 114 -11
28 -24 17 -24 -21 0 -22 -12 -57 -29 -89 l-30 -52 50 -26 c37 -19 66 -26 107
-26 47 0 60 -4 84 -27 19 -18 48 -32 81 -38 45 -9 52 -13 52 -35 0 -30 39 -52
77 -44 36 7 41 -7 22 -58 -24 -61 -27 -63 -78 -48 -81 23 -114 -6 -175 -151
-17 -41 -42 -87 -55 -104 l-25 -30 -16 23 c-11 15 -26 22 -50 22 -52 0 -50
-15 6 -44 85 -44 115 -32 145 57 8 25 21 48 28 50 19 7 106 -4 106 -14 0 -5
-19 -36 -42 -70 -49 -71 -194 -203 -253 -230 -73 -34 -145 -18 -229 50 -22 17
-41 29 -44 26 -8 -8 64 -89 89 -101 58 -28 104 -35 149 -25 61 14 93 14 88 -1
-2 -6 -38 -20 -78 -30 -88 -22 -119 -44 -50 -35 25 3 54 9 63 13 30 11 18 -12
-15 -29 l-33 -17 36 5 c27 4 40 1 54 -14 22 -25 13 -51 -18 -51 -13 0 -32 -7
-43 -16 -18 -14 -17 -15 14 -11 36 4 36 4 20 -23 -10 -15 -10 -22 0 -32 6 -6
12 -27 12 -45 0 -46 26 -83 57 -83 21 0 23 -3 13 -14 -50 -62 -409 -72 -526
-16 -88 43 -100 115 -46 286 36 112 72 284 72 344 0 48 8 70 25 70 22 0 28 20
11 38 -8 10 -18 37 -22 60 -8 53 -22 54 -30 2 -7 -43 -27 -50 -32 -12 -2 15 8
33 33 55 19 17 56 51 80 75 25 23 51 42 60 42 18 0 18 7 3 64 -15 58 4 92 59
102 21 4 54 15 73 24 35 18 87 66 79 74 -2 3 -26 -6 -52 -18 -26 -13 -80 -29
-121 -35 -40 -7 -82 -18 -92 -25 -17 -13 -17 -16 1 -70 20 -60 18 -71 -14 -61
-49 15 -82 115 -56 169 24 50 61 72 98 58 17 -7 37 -7 50 -2 16 7 18 9 5 9 -9
1 -20 6 -24 13 -5 8 4 9 34 4 41 -6 41 -6 31 17 -10 21 -4 30 60 92 114 109
74 99 -60 -16 -51 -44 -84 -65 -121 -75 -85 -22 -127 -78 -129 -171 0 -43 -1
-45 -10 -23 -11 26 -7 110 6 145 7 19 6 19 -15 -2 -18 -17 -25 -36 -28 -83 -4
-50 -7 -58 -18 -49 -36 29 4 132 66 173 22 14 40 31 40 36 0 13 -4 13 -48 -6
-57 -23 -92 -62 -92 -100 0 -36 -14 -53 -24 -28 -3 9 -6 31 -6 51 0 56 48 97
133 113 62 11 70 16 92 49 25 41 64 71 91 71 10 0 25 7 35 16 61 55 241 58
397 5z m1394 -5 c41 -8 110 -26 153 -41 78 -26 185 -82 185 -97 0 -15 -157 -7
-240 12 -47 11 -119 27 -160 34 -93 18 -124 51 -84 90 19 20 51 20 146 2z
m-3146 -147 c24 -50 52 -93 60 -96 9 -3 55 6 102 21 48 14 93 26 100 26 32 0
4 -21 -78 -58 -79 -36 -90 -45 -90 -67 0 -14 36 -101 80 -194 77 -163 101
-241 64 -210 -9 8 -57 95 -106 194 -49 99 -95 186 -101 192 -10 10 -23 7 -62
-13 -63 -34 -211 -94 -231 -94 -37 0 0 29 113 90 67 36 129 70 139 77 17 10
16 16 -18 90 -43 92 -51 119 -43 133 11 18 24 1 71 -91z m424 0 c34 -63 -26
-90 -67 -30 -31 46 -29 51 17 51 29 0 42 -5 50 -21z m2696 0 c133 -41 347
-170 322 -194 -6 -6 -257 58 -330 84 -63 23 -98 27 -98 11 0 -21 49 -56 157
-114 158 -86 263 -161 263 -188 0 -17 -73 -1 -174 38 -107 42 -180 64 -218 64
-30 0 -32 6 -19 61 7 30 4 46 -15 85 -29 60 -29 66 -4 89 11 10 20 22 20 26 0
12 19 59 24 59 2 0 35 -10 72 -21z m-3438 -48 c44 -27 109 -60 143 -72 72 -26
71 -28 -47 -85 -74 -36 -94 -41 -94 -24 0 6 7 10 16 10 23 0 0 27 -29 36 -69
20 -132 117 -108 163 7 12 18 21 25 21 7 0 49 -22 94 -49z m-626 15 c35 -14
117 -49 184 -79 66 -30 158 -67 202 -82 80 -26 105 -45 60 -45 -12 0 -93 23
-180 51 -88 28 -162 48 -165 45 -8 -8 93 -52 202 -87 146 -48 175 -60 169 -70
-11 -18 -207 29 -260 62 -17 10 -40 19 -51 19 -41 0 -226 140 -254 192 -14 26
16 24 93 -6z m4457 -12 c-18 -17 -114 -30 -155 -20 -46 12 -14 25 71 29 44 1
84 4 90 5 5 1 2 -5 -6 -14z m-3168 -197 c23 -129 44 -192 96 -295 24 -46 42
-86 40 -89 -3 -2 -28 -1 -57 3 -37 5 -61 15 -80 33 -27 25 -176 325 -182 366
-2 15 11 27 57 52 33 18 71 32 84 30 23 -2 26 -9 42 -100z m-705 24 c-8 -13
-66 -32 -66 -21 0 4 12 13 28 18 35 13 44 14 38 3z m1384 -10 c14 -27 13 -51
-3 -51 -25 0 -96 -59 -103 -85 -9 -36 -21 -31 -29 12 -6 36 -4 40 48 90 31 29
60 53 66 53 6 0 15 -9 21 -19z m1070 -13 c0 -19 -18 -43 -25 -36 -4 3 -2 16 5
27 12 24 20 27 20 9z m-2421 -61 c29 -47 31 -81 6 -85 -28 -3 -44 10 -54 44
-9 31 2 74 18 74 5 0 19 -15 30 -33z m384 -71 c25 -46 52 -107 62 -135 9 -28
21 -53 26 -56 5 -4 9 -11 9 -17 0 -13 -255 -2 -383 17 -102 15 -182 50 -182
80 0 19 6 20 95 19 55 0 139 -10 200 -22 108 -23 204 -31 215 -20 4 4 -1 20
-11 37 -19 31 -29 35 -246 82 -32 6 -55 16 -52 21 15 24 196 93 216 82 3 -3
27 -42 51 -88z m997 54 c-14 -10 -38 -29 -53 -41 -15 -11 -37 -39 -48 -60 -21
-42 -39 -51 -39 -20 0 34 43 88 90 115 54 31 87 35 50 6z m1025 -50 c-27 -54
-48 -169 -28 -157 6 4 13 26 17 49 6 37 9 40 18 24 15 -26 4 -103 -19 -134
-11 -15 -48 -44 -82 -65 -61 -37 -68 -35 -28 11 35 38 -3 26 -47 -15 l-39 -38
19 34 c19 34 80 85 115 96 16 5 19 16 19 63 0 72 12 115 46 159 36 48 40 35 9
-27z m-2877 21 c64 -17 158 -37 207 -46 121 -22 129 -25 116 -38 -8 -8 -40 -7
-113 1 -121 14 -168 15 -168 4 0 -8 109 -24 230 -36 42 -4 47 -26 8 -37 -33
-9 -149 5 -232 27 -124 34 -256 109 -256 145 0 18 94 8 208 -20z m3838 2 c88
-48 304 -193 304 -205 0 -18 -70 -1 -193 47 -64 25 -122 45 -130 45 -9 0 -17
15 -21 42 -4 23 -14 50 -22 60 -15 16 -12 38 5 38 5 0 30 -12 57 -27z m-3246
-71 c-17 -6 -42 7 -35 18 4 6 13 5 26 -3 10 -6 15 -13 9 -15z m3489 -3 c17 -6
31 -15 31 -20 0 -14 -21 -10 -65 10 -29 14 -34 20 -19 20 12 1 35 -4 53 -10z
m-3331 -34 c9 -10 -71 4 -81 15 -5 4 10 4 33 0 22 -4 44 -11 48 -15z m2006 9
c22 -8 20 -23 -6 -51 -25 -27 -48 -29 -88 -8 -31 16 -40 49 -17 58 18 8 93 8
111 1z m-849 -61 c-25 -46 -26 -47 -20 -14 5 32 33 76 42 67 3 -2 -7 -26 -22
-53z m1019 -32 c-16 -15 -16 -15 -10 4 4 11 10 34 14 50 l7 30 3 -34 c2 -22
-2 -39 -14 -50z m881 29 c3 -5 50 -40 103 -77 120 -83 192 -149 192 -176 0
-17 -5 -19 -42 -14 -47 6 -190 75 -229 110 -14 13 -38 46 -53 74 -23 42 -26
54 -17 72 12 22 36 28 46 11z m-3573 -89 c40 -6 109 -13 153 -17 l80 -7 -43
-14 c-40 -14 -43 -17 -40 -47 l3 -31 -92 -3 c-80 -2 -107 2 -220 34 -188 54
-234 80 -168 96 36 8 223 2 327 -11z m546 -28 c-15 -2 -42 -2 -60 0 -18 2 -6
4 27 4 33 0 48 -2 33 -4z m313 -17 c-14 -17 -70 -41 -77 -33 -15 15 30 45 70
46 15 1 16 -2 7 -13z m-131 -16 c0 -19 -40 -30 -136 -37 -123 -8 -93 -21 56
-22 l104 -1 -21 -21 c-20 -21 -23 -21 -204 -9 -203 13 -277 24 -297 44 -27 27
12 39 126 38 59 0 141 3 182 7 111 12 190 12 190 1z m330 -30 c24 -16 -6 -30
-63 -30 -56 0 -119 -29 -143 -65 -26 -40 -13 -45 50 -19 78 32 145 40 171 21
19 -15 19 -16 1 -36 -11 -12 -31 -21 -45 -21 -28 0 -93 -28 -126 -53 -16 -12
-17 -18 -8 -28 10 -10 22 -8 61 10 32 15 62 21 90 19 70 -5 58 -27 -26 -48
-49 -12 -90 -46 -74 -62 6 -6 20 -4 40 6 53 28 112 17 112 -21 0 -8 -13 -13
-38 -13 -51 0 -111 -39 -194 -128 -78 -83 -122 -155 -139 -226 -7 -28 -18 -61
-26 -73 -18 -27 -156 -123 -177 -123 -61 0 -8 297 96 535 76 174 169 309 237
345 40 21 174 28 201 10z m2667 -169 c37 -25 93 -101 93 -125 0 -23 -29 -20
-80 9 -113 64 -212 107 -236 101 -23 -6 -24 -5 -24 56 0 56 3 65 32 95 l32 33
75 -73 c42 -40 91 -83 108 -96z m-3659 39 c230 -16 212 -37 -33 -39 -182 -2
-156 -16 45 -26 152 -7 213 -18 160 -29 -73 -15 -263 -13 -385 3 -134 17 -190
35 -190 61 0 41 117 49 403 30z m587 -47 c-11 -46 -34 -76 -53 -67 -9 4 -75 9
-147 12 -124 4 -131 5 -148 29 -37 49 -24 53 174 53 l181 0 -7 -27z m3287 -49
c132 -48 200 -88 262 -155 111 -120 98 -157 -25 -72 -28 19 -104 55 -168 79
-112 43 -152 66 -138 80 4 4 33 3 65 -3 31 -6 59 -9 60 -8 7 6 -52 32 -88 40
-39 8 -70 31 -70 52 0 19 19 16 102 -13z m-365 -76 c103 -100 131 -158 78
-158 -34 0 -75 22 -153 81 -59 46 -102 62 -102 39 0 -20 30 -56 75 -90 25 -18
45 -37 45 -42 0 -16 -55 20 -97 63 -33 33 -43 51 -43 76 0 40 17 43 67 12 19
-12 37 -19 40 -15 9 9 -39 46 -69 52 -16 4 -28 10 -28 15 0 16 45 39 78 39 29
0 46 -12 109 -72z m-3092 12 c-8 -13 -35 -13 -55 0 -11 7 -5 10 23 10 23 0 36
-4 32 -10z m1138 -31 c8 -12 5 -30 -8 -65 -10 -27 -20 -43 -22 -37 -2 6 3 26
12 43 18 35 10 55 -19 44 -57 -22 -34 -145 61 -325 87 -166 213 -299 281 -299
34 0 26 16 -22 44 -51 30 -124 108 -160 171 -29 53 -33 52 99 30 157 -26 320
-14 408 29 l47 23 0 -51 c0 -53 -19 -136 -39 -174 -16 -30 -34 -28 -29 3 3 14
2 25 -2 25 -12 0 -30 -49 -24 -65 10 -24 31 -17 62 21 50 61 87 208 63 253
-10 17 -10 26 0 37 17 21 42 -2 34 -33 -6 -26 3 -29 31 -9 19 15 19 15 -1 29
-16 13 -20 30 -23 96 -2 45 0 81 5 81 15 0 33 -23 33 -41 0 -9 7 -22 15 -29
11 -9 12 -17 5 -30 -13 -25 -13 -27 8 -32 12 -3 25 -30 41 -82 13 -42 32 -93
42 -114 21 -40 24 -62 9 -62 -5 0 -34 -20 -64 -45 -31 -25 -64 -45 -75 -45
-11 0 -33 -11 -49 -25 -23 -19 -41 -25 -80 -25 -28 0 -81 -7 -119 -16 -144
-34 -427 21 -649 127 -116 55 -177 107 -215 181 -29 58 -30 63 -16 92 23 48
79 107 193 206 83 72 111 91 131 88 14 -2 31 -10 36 -19z m-1303 -9 c0 -16
-14 -19 -184 -34 -87 -8 -163 -19 -170 -26 -8 -8 17 -9 99 -3 61 4 158 8 217
8 99 0 105 1 96 18 -5 10 -8 23 -6 29 4 11 208 22 208 11 0 -3 -9 -20 -20 -38
-17 -27 -28 -33 -67 -38 -26 -3 -58 -1 -71 4 -14 5 -30 5 -40 0 -80 -43 -569
-39 -612 5 -13 14 -13 17 4 29 25 19 77 26 249 35 224 11 297 11 297 0z m3520
-90 c169 -91 330 -231 330 -286 0 -13 -3 -24 -7 -24 -5 0 -55 29 -112 65 -57
35 -149 88 -203 116 -91 46 -120 70 -104 86 3 3 39 -6 81 -21 41 -16 80 -26
86 -24 7 2 -30 26 -82 53 -56 30 -95 57 -97 68 -5 26 8 22 108 -33z m-1560
-57 c0 -41 13 -57 23 -30 4 7 6 6 6 -5 1 -26 -10 -48 -25 -48 -17 0 -34 61
-34 120 1 42 2 44 15 26 8 -11 15 -39 15 -63z m-1170 -67 c32 -67 112 -236
180 -376 151 -315 423 -914 563 -1240 58 -135 156 -360 217 -500 61 -140 194
-446 294 -680 233 -539 426 -975 556 -1255 187 -402 261 -568 377 -840 123
-288 159 -372 303 -699 55 -125 88 -212 83 -217 -22 -22 -44 24 -316 661 -154
360 -353 810 -447 1010 -88 187 -419 929 -477 1070 -49 117 -358 824 -670
1530 -30 69 -113 256 -183 415 -70 160 -191 421 -268 580 -183 381 -283 601
-290 643 -9 62 17 27 78 -102z m2268 108 c58 -29 192 -165 192 -195 0 -28 -34
-24 -96 11 -72 42 -122 89 -104 100 10 6 7 14 -13 34 -31 31 -53 33 -67 6 -12
-22 -8 -33 23 -67 26 -29 20 -29 -38 0 -45 23 -45 24 -25 42 11 10 20 28 20
41 0 24 24 54 44 54 7 0 35 -12 64 -26z m-2858 -23 c0 -16 -19 -23 -40 -16
-30 10 -24 25 10 25 17 0 30 -4 30 -9z m441 -21 c-13 -11 -30 -20 -39 -20 -13
0 -12 3 3 20 10 11 28 20 39 20 20 -1 20 -1 -3 -20z m1546 -22 c6 -7 18 -38
28 -68 21 -64 50 -124 132 -270 121 -218 238 -359 416 -502 105 -84 419 -298
449 -306 26 -6 22 15 -6 33 -13 9 -29 29 -36 46 -10 23 -23 32 -67 45 -43 13
-58 23 -78 53 -18 30 -33 41 -69 50 -37 9 -47 16 -52 39 -10 41 -23 52 -64 52
-41 0 -52 9 -67 55 -8 25 -18 32 -59 42 -51 13 -84 42 -84 75 0 36 -18 55 -60
62 -45 7 -60 30 -60 90 0 28 -5 36 -31 46 -42 18 -63 52 -56 95 5 32 3 35 -29
45 -36 12 -54 40 -54 83 0 12 -16 41 -34 65 -37 47 -54 98 -38 114 14 14 176
-76 289 -161 115 -87 299 -269 404 -402 113 -144 350 -541 333 -558 -2 -3 -10
1 -16 7 -18 18 -28 15 -28 -8 0 -11 -5 -20 -11 -20 -17 0 -380 242 -494 329
-257 197 -455 454 -537 699 -43 129 -55 182 -40 182 5 0 14 -6 19 -12z m1114
-13 c27 -14 52 -32 55 -39 3 -8 18 -16 34 -19 62 -13 204 -159 285 -293 37
-61 61 -122 51 -131 -13 -14 -142 91 -182 149 -16 23 -64 63 -118 98 -133 87
-136 90 -136 105 0 24 25 18 111 -26 45 -22 83 -38 86 -36 7 7 -150 122 -201
146 -45 22 -72 52 -59 65 10 10 21 7 74 -19z m-3133 -2 c2 -8 -6 -13 -22 -13
-17 0 -26 5 -26 16 0 19 41 16 48 -3z m542 -93 c48 -96 59 -130 42 -130 -5 0
-36 -28 -70 -62 -38 -39 -65 -59 -71 -53 -4 6 -11 29 -15 52 -6 40 -3 45 49
107 30 35 55 67 55 71 0 9 -41 -15 -85 -50 -59 -47 -65 -49 -65 -26 0 11 25
47 56 80 l56 61 -47 -26 c-25 -15 -52 -35 -58 -45 -20 -33 -58 -17 -39 16 6
12 126 101 139 104 2 1 25 -44 53 -99z m2198 46 c33 -17 136 -123 186 -189 96
-128 -23 -127 -156 1 -69 66 -88 96 -43 66 34 -22 32 -4 -4 30 -22 21 -37 27
-55 24 -23 -5 -26 -2 -26 23 0 53 44 73 98 45z m-65 -173 c161 -166 181 -204
123 -231 -28 -14 -28 -14 -9 -34 17 -16 24 -17 46 -7 22 10 30 8 55 -9 16 -12
35 -28 42 -37 16 -19 30 -19 30 0 0 8 -18 26 -40 40 -42 26 -53 55 -22 55 50
0 160 -103 236 -223 73 -113 121 -262 105 -321 -20 -74 -43 -55 -136 107 -30
55 -74 123 -98 151 -23 29 -46 63 -50 75 -10 34 -103 121 -128 121 -30 0 -112
83 -104 104 4 10 -2 20 -16 27 -27 14 -147 130 -147 142 0 5 16 0 36 -12 46
-28 49 -27 25 8 -27 38 -81 71 -115 71 -57 0 -12 30 64 43 14 2 26 5 26 6 1 0
35 -34 77 -76z m-2349 31 c14 -36 4 -74 -39 -144 -41 -69 -53 -100 -39 -100 3
0 27 19 55 43 37 31 49 49 49 70 0 29 20 36 39 13 9 -11 7 -21 -8 -47 -10 -19
-26 -60 -35 -92 -9 -32 -27 -66 -39 -76 -12 -11 -74 -63 -137 -118 -135 -115
-338 -268 -346 -260 -3 3 -1 15 6 26 6 12 8 26 5 32 -4 5 8 26 25 45 39 45 32
54 -14 19 -20 -15 -36 -23 -36 -17 0 6 5 14 10 17 15 9 12 35 -4 35 -10 0 -3
21 22 73 48 96 186 235 290 291 88 48 158 119 167 170 8 38 19 46 29 20z
m-344 -11 c0 -3 -5 -35 -11 -70 -9 -48 -8 -71 1 -93 11 -26 9 -33 -11 -62 -46
-65 -170 -208 -179 -208 -39 0 24 167 133 352 46 77 67 103 67 81z m658 -105
c67 -144 125 -276 137 -313 7 -22 20 -57 29 -77 10 -23 16 -66 16 -110 0 -119
59 -457 92 -528 21 -44 19 -141 -2 -182 -11 -21 -16 -40 -11 -42 4 -3 13 6 20
21 20 43 36 13 17 -32 -23 -55 -21 -76 5 -45 l20 25 -6 -39 c-6 -36 -5 -38 15
-33 19 5 21 3 15 -16 -16 -52 -18 -70 -6 -63 7 5 11 -3 11 -24 0 -21 4 -29 12
-24 8 5 9 -3 5 -29 -6 -37 0 -46 19 -27 7 7 11 0 12 -22 0 -18 2 -42 3 -53 1
-11 -1 -32 -6 -47 -6 -24 -4 -28 15 -28 28 0 23 -34 -6 -38 -26 -4 -82 57 -91
99 -5 27 -9 29 -49 29 -73 0 -126 64 -100 121 6 13 -1 17 -39 22 -59 6 -78 25
-85 84 -4 37 -10 50 -30 60 -13 6 -32 22 -42 35 -19 25 -24 83 -8 93 18 11 11
36 -19 63 -35 33 -51 63 -51 96 0 40 11 56 36 56 l24 0 -30 42 c-36 49 -41
115 -11 142 26 23 32 12 76 -126 20 -65 41 -120 46 -124 16 -9 10 23 -21 119
-35 109 -35 107 -15 107 26 0 16 19 -18 34 -27 11 -37 25 -55 71 -26 67 -27
88 -7 105 24 20 54 -7 126 -112 43 -63 65 -87 67 -75 4 22 -50 121 -117 211
-66 89 -69 126 -14 187 33 36 35 42 20 50 -52 30 -64 158 -22 246 13 29 20 55
15 58 -18 11 -40 -9 -64 -61 -14 -30 -29 -54 -34 -54 -5 0 -19 14 -32 32 l-23
31 24 44 c30 55 73 103 93 103 9 0 27 -26 44 -62z m216 -63 c4 -16 11 -22 21
-19 11 5 15 -1 15 -20 0 -29 11 -33 30 -11 20 25 30 17 29 -22 -1 -21 1 -74 5
-118 6 -75 5 -78 -8 -50 -9 17 -15 40 -16 52 0 31 -11 54 -21 47 -10 -6 -89
150 -89 174 0 22 27 -4 34 -33z m1253 -27 c28 -31 36 -71 23 -117 -7 -27 -7
-47 0 -67 6 -15 22 -112 35 -216 13 -103 29 -207 35 -231 7 -23 16 -58 20 -77
17 -66 31 -280 20 -300 -13 -25 -13 -97 1 -105 9 -6 7 -38 -8 -89 -10 -34 -21
-1 -58 167 -75 344 -262 927 -297 927 -13 0 -9 -16 62 -245 118 -380 250 -868
253 -936 1 -20 -5 -45 -13 -54 -8 -10 -60 -40 -115 -67 l-100 -49 -7 128 c-7
138 -53 499 -94 733 -27 156 -86 434 -99 463 -5 12 -3 17 7 17 47 0 80 -89
237 -640 28 -96 57 -208 66 -247 9 -40 21 -73 26 -73 5 0 9 6 9 13 0 47 -132
511 -219 770 l-60 178 31 17 c17 9 63 41 102 70 78 58 111 64 143 30z m-1677
-31 c0 -13 6 -29 13 -36 27 -27 6 -388 -26 -446 -33 -61 -200 -183 -284 -209
-43 -14 -23 12 30 37 53 27 161 116 141 117 -6 0 -18 -8 -25 -17 -8 -9 -40
-33 -72 -54 -63 -41 -124 -56 -183 -45 -37 8 -114 69 -114 92 0 7 19 23 43 35
121 62 256 177 333 285 43 61 75 123 108 217 19 50 36 62 36 24z m591 -157 c6
-63 12 -117 15 -119 13 -14 15 20 6 116 -7 63 -7 112 -2 117 5 5 54 -6 117
-27 139 -45 247 -60 406 -56 l127 4 15 -32 c8 -17 15 -44 16 -60 0 -15 4 -37
9 -48 6 -13 7 11 4 65 -14 192 40 -13 86 -330 37 -255 109 -881 103 -897 -4
-9 -40 -32 -82 -51 -64 -30 -87 -35 -146 -35 -38 0 -90 3 -115 7 -45 8 -45 8
-72 80 -15 39 -39 127 -53 196 -14 69 -32 148 -39 175 -18 63 -32 152 -51 325
-9 74 -20 139 -25 144 -21 21 -5 -152 35 -374 45 -256 43 -270 -14 -120 -18
47 -57 137 -86 200 -59 127 -138 311 -150 350 -4 14 -30 67 -56 118 -27 51
-49 104 -49 118 0 14 -5 34 -10 44 -12 22 -39 218 -31 226 17 16 32 -35 42
-136z m-1281 101 c0 -13 -22 -29 -53 -36 -37 -10 -46 -28 -11 -23 37 4 43 -19
7 -29 -40 -10 -112 -8 -125 5 -5 5 -7 16 -3 22 9 14 85 48 135 60 48 11 50 11
50 1z m793 -141 c0 -68 -10 -160 -28 -260 -25 -141 -27 -170 -22 -320 6 -184
24 -272 81 -395 66 -141 162 -249 376 -422 95 -76 150 -149 150 -196 0 -46
-32 -104 -100 -180 -33 -37 -60 -76 -60 -85 0 -10 16 -41 36 -70 20 -30 33
-56 31 -59 -27 -27 -122 145 -156 282 -36 148 -74 336 -68 341 5 5 29 -12 155
-107 51 -38 82 -82 69 -96 -4 -3 -17 3 -30 15 -30 28 -37 28 -37 -3 0 -56 74
-86 104 -43 29 40 13 118 -24 118 -16 0 -164 123 -262 218 -146 141 -235 281
-280 439 -31 106 -30 327 1 528 12 77 24 187 27 245 3 58 7 125 10 150 5 39 7
42 17 25 6 -12 11 -65 10 -125z m1834 -104 l111 -120 -23 -46 c-61 -121 -94
-318 -75 -446 7 -42 18 -95 26 -117 23 -66 8 -54 -25 18 -39 86 -74 196 -105
332 -32 139 -106 542 -106 574 1 22 5 19 43 -26 23 -27 92 -103 154 -169z
m-2659 -39 c3 -38 -5 -46 -26 -25 -13 13 -16 51 -5 62 14 14 28 -2 31 -37z
m442 13 c0 -15 -35 -47 -72 -66 -18 -9 -43 -25 -54 -36 -13 -12 -24 -15 -28
-9 -4 5 5 18 19 28 15 10 47 35 73 55 50 39 62 44 62 28z m734 -127 c24 -84
106 -508 105 -546 -1 -44 -48 138 -104 402 -25 117 -45 215 -45 218 0 3 6 0
13 -6 8 -6 21 -37 31 -68z m1832 -134 c60 -41 120 -80 132 -87 25 -14 29 -32
7 -32 -8 0 -15 -4 -15 -10 0 -5 20 -10 44 -10 77 0 172 -54 161 -91 -4 -11 9
-79 28 -152 71 -271 99 -399 90 -408 -6 -6 -51 10 -116 41 -58 27 -146 63
-194 79 -48 17 -93 37 -99 45 -12 18 -44 22 -44 6 0 -13 116 -71 210 -104 96
-35 222 -102 269 -143 l36 -32 -33 -1 c-18 0 -124 18 -235 40 -111 22 -240 46
-287 54 -55 9 -88 20 -96 31 -16 22 -28 116 -19 146 17 56 126 144 236 190 73
30 109 58 109 85 0 19 -109 19 -155 0 -34 -14 -52 -45 -19 -32 32 12 124 19
124 9 0 -6 -17 -13 -38 -15 -49 -7 -137 -49 -195 -93 -52 -40 -62 -43 -47 -16
17 32 12 36 -14 12 -14 -13 -30 -36 -36 -52 -7 -16 -16 -29 -20 -29 -15 0 -35
119 -34 200 3 129 36 237 96 312 12 15 18 31 14 35 -18 18 -119 -146 -139
-226 -15 -60 -27 -50 -27 24 0 52 66 320 87 353 l14 23 47 -39 c26 -22 97 -73
158 -113z m-2956 121 c9 -17 8 -20 -10 -20 -11 0 -20 2 -20 4 0 2 -3 11 -6 20
-9 24 23 20 36 -4z m210 12 c0 -15 -24 -32 -44 -32 -20 1 -20 1 3 20 24 21 41
26 41 12z m440 -134 c0 -7 -9 -32 -19 -55 -11 -23 -17 -51 -14 -62 3 -12 0
-28 -7 -36 -10 -12 -9 -18 5 -31 19 -20 15 -82 -7 -95 -10 -6 -9 -11 3 -21 18
-14 55 -180 44 -198 -10 -16 -22 -12 -28 10 -4 14 -10 18 -22 14 -14 -6 -16
-3 -10 14 5 18 2 22 -14 22 -12 0 -21 5 -21 10 0 6 -9 10 -20 10 -13 0 -20 7
-20 19 0 15 -5 18 -22 13 -18 -4 -20 -2 -16 16 6 22 -6 30 -17 12 -9 -15 -25
-2 -25 21 0 10 -7 19 -15 19 -24 0 -18 13 26 55 22 22 59 63 82 90 46 57 28
43 -81 -59 -75 -70 -97 -67 -27 4 27 27 47 52 44 54 -5 6 -100 -53 -111 -69
-19 -26 -6 17 15 49 15 23 48 49 101 77 48 27 91 59 113 86 34 42 63 56 63 31z
m-491 -168 c17 -32 31 -65 31 -74 0 -9 6 -16 13 -16 24 0 67 -25 73 -42 3 -10
0 -26 -5 -37 -20 -37 -11 -45 19 -16 35 33 41 16 10 -30 -28 -43 -25 -51 10
-21 31 25 54 26 64 1 3 -8 -10 -37 -29 -64 -41 -59 -45 -73 -12 -43 35 33 41
15 12 -34 -36 -62 -31 -64 25 -9 27 27 52 46 55 43 3 -3 -16 -34 -43 -69 -64
-85 -72 -99 -46 -80 10 8 38 33 62 55 41 39 42 39 42 15 0 -14 5 -30 12 -37
13 -13 11 -15 -66 -107 -52 -61 -38 -70 17 -11 43 48 69 54 40 9 -15 -23 -15
-24 5 -30 16 -4 19 -9 13 -20 -4 -9 -2 -31 5 -54 10 -28 11 -46 4 -65 -8 -20
-7 -29 4 -38 10 -7 17 -40 22 -93 6 -75 5 -83 -11 -83 -14 0 -15 -3 -6 -14 10
-11 9 -21 -4 -45 -8 -17 -19 -31 -24 -31 -11 0 -21 25 -21 55 0 13 -5 27 -11
31 -6 3 -9 17 -6 30 5 30 -9 31 -33 2 -18 -23 -18 -23 -40 -3 -15 13 -20 29
-19 54 6 99 -9 159 -25 96 -4 -15 -16 -27 -31 -31 -14 -3 -25 -12 -25 -18 0
-18 117 -195 245 -372 16 -22 -4 -28 -26 -8 -12 10 -74 98 -138 194 -213 317
-311 484 -311 529 0 37 15 23 43 -42 35 -81 132 -239 140 -230 4 3 7 25 7 48
0 34 -5 45 -30 63 -17 13 -34 39 -41 61 -6 22 -29 61 -51 87 -22 26 -44 57
-50 67 -10 19 -6 85 8 120 5 13 1 17 -20 17 -29 0 -30 3 -17 28 5 10 21 84 35
165 15 81 31 159 37 174 l10 26 23 -22 c13 -13 38 -49 55 -81z m1148 -77 c41
-87 83 -167 93 -178 9 -11 20 -35 24 -53 3 -19 17 -57 31 -84 28 -56 26 -71
-5 -43 -35 32 -22 -2 20 -50 21 -25 58 -84 80 -131 64 -134 122 -275 117 -281
-28 -27 -324 310 -346 394 -5 21 -24 130 -41 243 -18 113 -38 235 -45 273 -7
37 -11 67 -8 67 2 0 38 -71 80 -157z m-983 88 c45 -7 57 -25 27 -41 -17 -8
-32 -5 -81 20 -33 17 -60 33 -60 36 0 4 17 3 38 -1 20 -5 55 -11 76 -14z
m3031 -227 c12 -69 -15 -45 -30 26 -7 30 -6 33 8 22 8 -7 18 -29 22 -48z
m-767 -202 c-3 -113 -7 -145 -24 -183 -26 -55 -174 -220 -299 -330 -102 -91
-283 -216 -294 -203 -16 19 -163 345 -158 350 3 3 47 -6 99 -21 108 -32 253
-46 246 -24 -3 8 -24 18 -49 22 -24 5 -48 13 -53 17 -10 10 60 46 164 85 108
39 149 62 198 109 56 53 57 56 98 199 57 199 78 192 72 -21z m-2168 140 c0
-11 -22 -32 -32 -32 -5 0 -4 9 2 20 11 20 30 28 30 12z m2987 -162 c25 -75 12
-79 -16 -5 -24 63 -24 65 -12 65 4 0 17 -27 28 -60z m-2850 -490 l0 -425 -7
380 c-4 209 -11 421 -15 472 -4 50 -3 98 1 105 17 25 22 -106 21 -532z m2099
440 c-5 -59 -4 -90 3 -90 5 0 11 12 13 27 4 36 28 43 28 8 0 -23 2 -26 15 -15
12 10 15 9 15 -7 0 -12 11 -25 28 -33 36 -18 14 -22 -63 -13 l-60 8 -3 40 c-5
59 8 165 20 165 7 0 8 -29 4 -90z m-1909 -12 c57 -61 143 -183 143 -203 0 -11
9 -62 20 -114 31 -144 25 -159 -19 -46 -33 83 -136 286 -176 346 -28 40 -31
49 -16 49 9 0 31 -15 48 -32z m631 -166 c54 -90 117 -159 217 -238 97 -75 141
-122 166 -178 23 -50 24 -66 4 -66 -47 0 -223 124 -295 207 -92 107 -103 125
-122 202 -16 69 -24 141 -14 141 2 0 22 -31 44 -68z m2077 17 c10 -15 -1 -23
-20 -15 -9 3 -13 10 -10 16 8 13 22 13 30 -1z m-330 -88 c421 -67 804 -156
983 -229 75 -30 74 -25 31 -206 -57 -239 -154 -505 -251 -686 -73 -138 -208
-336 -290 -426 -161 -177 -477 -434 -533 -434 -50 0 -209 197 -308 380 -129
240 -202 471 -232 743 -25 222 -19 377 26 652 10 66 19 141 19 167 0 39 5 50
28 68 25 21 34 22 152 17 69 -3 237 -24 375 -46z m-2935 -216 c0 -22 5 -47 10
-55 8 -12 10 -9 10 12 0 42 17 42 39 0 22 -44 118 -174 179 -245 23 -27 42
-58 42 -71 0 -34 -64 -125 -189 -270 -110 -127 -171 -226 -171 -274 0 -47 40
-106 151 -227 124 -133 151 -170 173 -232 22 -63 4 -52 -39 22 -21 35 -91 122
-156 192 -65 70 -129 147 -141 170 -21 39 -21 46 -10 90 28 105 53 143 228
342 85 96 142 185 125 196 -6 3 -18 -11 -27 -31 -10 -20 -65 -89 -123 -152
-136 -147 -168 -187 -197 -244 -28 -55 -40 -65 -47 -39 -2 10 -1 174 4 362 5
189 6 422 2 517 -5 96 -6 175 -4 178 2 2 35 -42 72 -99 55 -83 69 -110 69
-142z m784 187 c-1 -7 -2 -36 -3 -64 -3 -43 -5 -48 -11 -28 -13 42 -12 112 3
108 6 -3 12 -10 11 -16z m1536 2 c0 -20 -187 -207 -290 -290 -76 -62 -202
-144 -220 -144 -6 0 -10 9 -10 20 0 13 22 32 73 61 96 56 127 81 292 236 77
73 143 133 148 133 4 0 7 -7 7 -16z m-25 -186 c-35 -131 -108 -246 -191 -294
-46 -27 -160 -76 -202 -86 -18 -5 -26 0 -41 30 -38 76 -38 77 34 110 103 49
243 149 330 238 44 45 81 78 83 74 2 -5 -4 -37 -13 -72z m-894 -147 c50 -34
116 -69 150 -79 61 -19 99 -54 99 -94 0 -23 -8 -22 -110 7 -106 31 -175 72
-259 155 -60 59 -68 71 -80 125 -7 33 -15 67 -18 75 -3 8 25 -18 62 -57 37
-41 106 -99 156 -132z m-581 49 c12 -74 25 -142 30 -150 23 -45 91 -226 99
-263 25 -111 42 -454 61 -1177 14 -526 -7 -1304 -36 -1352 -3 -4 -24 0 -47 8
-51 18 -87 11 -87 -16 0 -11 27 -49 61 -84 l61 -66 -12 -69 c-10 -50 -10 -77
-2 -100 10 -27 9 -31 -8 -31 -49 0 -63 -26 -35 -64 19 -25 19 -90 0 -189 -8
-43 -15 -84 -14 -90 2 -29 28 56 40 128 7 44 16 84 20 89 11 13 92 -35 106
-64 18 -34 10 -86 -43 -304 -69 -277 -87 -308 -223 -381 -121 -64 -184 -135
-121 -135 12 0 30 16 45 40 26 41 55 58 35 21 -14 -26 -13 -44 2 -39 7 3 15
15 18 28 9 40 30 36 30 -5 0 -32 2 -36 15 -25 8 7 15 20 15 30 0 10 9 28 20
41 l20 24 -6 -30 c-4 -16 -11 -40 -15 -52 -5 -15 -5 -23 2 -23 13 0 39 62 39
94 0 25 49 92 50 68 0 -7 -9 -38 -20 -69 -22 -62 -27 -110 -10 -83 17 26 52
123 60 170 4 25 21 74 36 110 15 36 37 103 50 150 12 46 28 86 35 89 8 2 10
-2 6 -13 -4 -9 -16 -58 -28 -109 -12 -50 -29 -112 -39 -137 -30 -78 -69 -213
-75 -260 l-5 -45 25 52 c28 59 94 286 121 411 18 83 43 140 43 97 1 -37 -37
-192 -77 -317 -21 -68 -42 -136 -46 -153 -14 -67 22 7 54 108 50 159 41 147
107 147 57 1 58 1 35 18 -12 9 -32 24 -44 33 -18 13 -20 21 -13 67 8 61 25 69
25 12 0 -43 14 -54 24 -18 7 29 23 14 29 -27 4 -28 5 -29 12 -7 12 35 38 29
30 -7 -8 -35 10 -50 25 -21 15 28 30 16 30 -23 1 -29 2 -30 14 -14 17 22 26
22 26 -3 0 -11 6 -20 14 -20 13 0 51 -32 176 -150 59 -56 41 -53 -36 6 -26 20
-71 47 -100 60 -52 23 -135 43 -122 29 4 -4 67 -52 140 -106 158 -118 251
-170 270 -151 9 9 9 20 -1 50 -38 105 -180 253 -408 423 -93 69 -132 105 -121
107 42 8 207 -94 343 -213 110 -96 221 -165 265 -165 19 0 20 1 5 36 -18 44
-70 118 -137 196 -70 81 -232 209 -449 353 -188 126 -238 165 -189 150 47 -14
165 -72 235 -115 89 -54 184 -125 360 -265 145 -115 219 -165 249 -165 74 0
-30 167 -229 365 -178 179 -588 491 -707 540 -52 22 -65 41 -20 30 116 -29
530 -297 717 -464 145 -130 541 -528 533 -537 -3 -2 -20 2 -39 10 -29 12 -39
12 -67 1 -35 -15 -56 -56 -47 -92 4 -17 -1 -26 -24 -37 -32 -17 -41 -34 -41
-75 0 -20 -7 -31 -25 -39 -27 -13 -40 -48 -32 -89 3 -16 -2 -42 -13 -63 -34
-66 -58 -221 -43 -280 8 -30 48 -67 76 -69 13 -2 7 29 -18 89 -38 90 -31 112
22 70 28 -22 53 -26 53 -9 0 6 -18 34 -40 61 -48 60 -55 108 -16 108 13 0 35
-9 50 -21 14 -11 33 -19 41 -17 12 2 5 19 -30 72 -25 38 -45 77 -45 87 0 32
37 22 85 -22 25 -23 45 -36 45 -30 0 6 -13 38 -30 71 -46 90 -38 120 32 120
43 0 50 16 18 43 -25 21 -26 53 -1 67 31 16 111 13 111 -4 0 -8 -4 -18 -10
-21 -6 -4 -4 -18 6 -37 27 -53 14 -104 -50 -195 -67 -96 -136 -240 -162 -338
-15 -54 -19 -105 -19 -225 0 -149 1 -157 28 -212 28 -58 35 -63 182 -156 58
-36 111 -87 98 -95 -4 -3 -35 15 -68 40 -65 49 -154 98 -163 89 -7 -8 28 -45
58 -61 14 -7 48 -36 75 -64 l50 -51 180 6 c192 7 177 9 400 -51 79 -20 144
-29 308 -39 171 -10 211 -16 225 -30 15 -15 15 -18 2 -27 -14 -9 -45 -8 -145
7 -28 4 -46 1 -60 -9 -19 -15 -19 -16 10 -22 91 -20 139 -39 167 -64 44 -39
34 -57 -40 -66 -45 -5 -71 -15 -107 -41 -27 -19 -54 -34 -60 -34 -18 0 -43 32
-51 65 -22 93 -72 124 -199 125 -85 0 -245 -27 -245 -41 0 -5 71 -9 158 -9
122 0 163 -3 178 -14 12 -10 16 -18 9 -24 -19 -18 -185 -91 -185 -81 0 6 14
18 31 27 49 27 64 40 57 47 -9 9 -175 -38 -230 -65 -44 -21 -94 -27 -83 -10 4
6 33 24 66 40 62 32 79 55 32 44 -16 -3 -95 -28 -177 -55 -81 -28 -150 -48
-153 -45 -3 2 16 16 40 31 25 14 51 33 59 42 14 18 29 18 -187 -7 -122 -14
-232 -38 -278 -62 -22 -11 -41 -17 -44 -14 -3 3 11 29 31 58 35 52 45 78 28
78 -21 0 -143 -54 -204 -91 -94 -57 -107 -43 -20 22 65 48 77 63 112 135 22
45 40 85 40 89 0 22 36 45 69 45 34 0 71 14 61 23 -3 3 -19 12 -37 20 -17 9
-41 29 -53 44 -32 42 -100 152 -100 163 0 15 -30 12 -36 -4 -7 -19 17 -74 51
-115 28 -33 29 -34 12 -63 -9 -16 -17 -37 -17 -47 0 -9 -7 -27 -16 -40 -16
-22 -21 -23 -78 -17 -54 6 -166 47 -166 60 0 2 33 4 73 3 40 -1 74 2 76 8 5
11 -2 15 -123 70 -43 19 -76 38 -73 41 3 3 31 0 62 -6 57 -12 105 -7 105 9 0
5 -34 28 -75 50 -79 42 -149 91 -141 98 2 2 29 -3 60 -12 60 -18 117 -17 123
1 2 6 -13 21 -33 33 -63 38 -188 146 -172 149 9 2 51 -6 94 -18 92 -24 124
-25 124 -6 0 22 -112 157 -182 221 -34 30 -59 57 -57 60 3 2 34 -13 70 -35
113 -69 140 -81 167 -78 68 8 1 108 -207 309 -220 213 -178 211 92 -4 164
-131 190 -139 138 -40 -79 147 -307 394 -435 472 -103 62 -121 40 -181 -224
-12 -53 11 -14 35 60 43 132 61 175 76 175 12 0 12 -5 -1 -37 -21 -54 -45
-163 -35 -163 4 0 16 30 26 68 21 82 33 107 45 95 5 -5 2 -45 -7 -95 l-16 -87
30 -39 31 -38 -19 -74 c-11 -41 -17 -76 -15 -78 4 -5 11 9 39 81 16 39 36 50
36 19 0 -11 11 -24 25 -30 14 -7 34 -25 43 -42 9 -16 27 -35 39 -41 22 -12
213 -212 213 -224 0 -3 -15 6 -34 20 -18 14 -92 56 -162 93 -115 60 -130 70
-134 97 -6 29 -6 30 -18 8 -32 -57 -5 -104 117 -209 50 -42 91 -81 91 -85 0
-24 -90 0 -131 35 -17 14 -42 26 -55 26 -34 0 -196 84 -212 109 -14 23 -72 30
-72 9 0 -29 345 -200 430 -213 62 -10 110 -26 110 -35 0 -30 -168 14 -296 77
-55 27 -169 85 -254 129 -177 91 -264 123 -368 133 -46 4 -77 12 -83 22 -6 8
-9 67 -6 140 3 113 7 133 31 183 30 62 65 92 183 160 114 65 117 70 67 115
-22 20 -46 48 -52 64 -14 33 -47 38 -36 5 14 -44 34 -87 44 -93 20 -12 9 -24
-42 -48 -98 -45 -242 -206 -256 -287 -6 -36 -14 -44 -87 -90 -43 -27 -83 -50
-87 -50 -16 0 -7 17 23 46 83 78 210 318 268 506 83 271 241 1372 282 1963 14
207 14 1036 0 1230 -6 83 -27 290 -46 460 -19 171 -35 319 -35 329 0 42 9 5
30 -124z m-514 -23 c-12 -36 -26 -40 -26 -9 0 15 30 55 36 49 2 -1 -3 -20 -10
-40z m1969 -96 c-9 -42 -111 -149 -221 -232 -92 -69 -110 -89 -79 -89 8 0 15
-5 15 -11 0 -34 119 27 214 110 38 33 51 40 57 29 4 -8 9 -72 10 -143 l1 -129
-68 -22 c-111 -35 -168 -47 -172 -35 -7 20 4 26 83 47 146 39 170 57 88 67
-37 5 -50 2 -58 -9 -28 -44 -34 -48 -69 -48 -24 0 -44 8 -62 25 -28 25 -114
198 -114 228 0 12 16 22 58 35 94 30 187 84 254 149 35 34 65 61 66 60 2 -1 1
-15 -3 -32z m-889 -71 c69 -41 183 -82 261 -95 41 -6 42 -8 77 -90 20 -46 36
-86 36 -89 0 -18 -182 100 -342 220 -134 102 -145 120 -32 54z m-27 -55 c131
-103 250 -182 346 -230 68 -35 83 -47 102 -84 12 -24 20 -48 17 -52 -8 -13
-62 -11 -87 3 -12 6 -53 11 -91 10 -50 -1 -79 4 -107 19 -22 11 -59 22 -84 26
-25 3 -68 20 -97 39 -29 19 -57 34 -64 34 -21 0 -86 59 -115 105 -16 25 -29
48 -29 50 0 3 14 5 31 5 24 0 30 4 25 16 -4 12 -1 14 14 9 19 -6 20 -3 14 59
-7 87 2 86 125 -9z m-258 -9 c-10 -11 -10 -20 -1 -36 15 -28 2 -41 -16 -16
-24 33 -17 66 14 66 11 0 12 -3 3 -14z m-807 -158 c-4 -7 -16 -24 -26 -38 -23
-32 -14 -73 13 -65 20 7 26 -9 8 -21 -15 -9 -42 -75 -34 -82 4 -4 15 4 25 18
l20 25 0 -46 c0 -32 -6 -54 -21 -73 -21 -27 -11 -38 11 -11 23 27 23 7 0 -29
-12 -20 -17 -36 -11 -36 5 0 13 5 16 10 3 6 10 10 16 10 18 0 8 -49 -21 -105
-17 -32 -28 -60 -26 -63 3 -2 17 8 32 23 l27 27 -7 -47 c-3 -27 -11 -54 -17
-61 -9 -11 -8 -18 1 -29 10 -12 10 -18 0 -30 -10 -12 -10 -15 3 -15 33 0 53
-174 24 -199 -18 -14 -27 -4 -27 31 0 16 -7 31 -15 34 -22 9 -75 98 -75 127 0
23 -4 27 -27 27 -51 0 -78 22 -83 65 -5 37 -7 40 -44 46 -112 18 -93 132 54
314 64 80 179 205 188 205 2 0 0 -6 -4 -12z m925 -73 c184 -103 324 -149 509
-167 131 -13 163 -28 58 -28 -89 0 -280 34 -361 65 -91 34 -274 130 -319 167
-45 37 -47 56 -3 30 17 -11 70 -41 116 -67z m-831 -360 c-1 -161 -4 -229 -8
-190 -11 84 -10 531 1 480 4 -22 7 -152 7 -290z m876 127 c223 -219 310 -296
421 -367 135 -89 215 -105 299 -60 26 14 49 25 52 25 11 0 2 -79 -11 -90 -8
-6 -37 -47 -64 -90 -31 -48 -64 -85 -86 -98 -29 -18 -35 -27 -35 -55 0 -20 -9
-46 -21 -61 -11 -14 -16 -26 -10 -26 5 0 17 10 25 22 9 12 18 19 22 15 7 -7
-31 -61 -125 -177 -64 -79 -73 -109 -45 -148 18 -26 111 -102 125 -102 22 0 5
28 -41 68 -28 24 -50 50 -50 58 0 18 3 18 47 -6 60 -32 61 -31 162 48 16 12
36 22 44 22 8 0 14 8 13 18 -1 12 7 18 27 20 31 4 31 2 16 52 -22 72 9 116 59
84 25 -16 25 -17 6 -31 -12 -9 -20 -30 -24 -65 -4 -47 -8 -52 -34 -59 -33 -9
-63 -38 -87 -86 -15 -30 -16 -33 0 -33 9 0 26 -3 39 -6 20 -6 22 -3 22 32 0
44 13 70 28 60 7 -4 5 -16 -5 -34 -21 -36 -11 -91 12 -72 23 19 19 -12 -5 -43
-21 -27 -27 -57 -10 -57 6 0 10 7 10 15 0 8 5 15 10 15 6 0 10 -18 10 -41 0
-24 4 -38 10 -34 6 4 10 57 10 126 0 73 4 119 10 119 6 0 10 -12 10 -27 0 -52
11 -73 36 -73 20 0 24 5 24 28 0 16 -9 39 -20 52 -25 28 -27 55 -4 46 10 -4
22 1 30 11 12 17 13 17 14 -3 0 -12 7 -25 16 -28 12 -5 14 -14 9 -38 -16 -78
-27 -108 -39 -108 -9 0 -13 -15 -13 -52 0 -31 -10 -84 -25 -128 -15 -41 -29
-93 -33 -114 -17 -100 -76 -206 -115 -206 -11 0 -22 12 -29 30 -16 47 -34 38
-29 -15 7 -55 22 -75 58 -75 64 0 117 114 225 485 31 105 61 209 67 233 6 23
14 42 18 42 8 0 40 -62 40 -78 0 -6 -5 -12 -11 -14 -16 -5 -28 -170 -34 -508
-8 -428 -59 -1545 -72 -1600 l-6 -25 -8 29 c-4 15 -4 112 1 215 6 102 16 348
25 546 8 198 17 381 19 408 3 26 1 47 -3 47 -12 0 -19 -78 -41 -515 -26 -504
-36 -654 -44 -662 -3 -3 -16 7 -28 23 -12 16 -59 67 -103 114 l-82 85 22 95
c13 52 37 149 54 215 75 282 144 780 112 800 -9 5 -13 -21 -26 -167 -6 -66 -8
-69 -52 -105 -44 -37 -45 -60 -1 -29 12 9 26 16 30 16 16 0 7 -32 -14 -54 -19
-19 -23 -34 -24 -97 -1 -46 -13 -119 -32 -194 -17 -66 -43 -178 -58 -250 -32
-157 -39 -175 -61 -175 -10 0 -39 18 -64 40 l-46 39 -6 288 c-5 239 -11 326
-35 513 -17 124 -28 227 -26 229 5 5 214 -418 214 -435 0 -33 -26 -13 -88 65
-31 40 -45 22 -20 -28 26 -54 82 -111 108 -111 38 0 52 29 48 98 l-4 64 37 25
c34 22 78 73 64 73 -3 0 -30 -16 -60 -37 -31 -20 -57 -34 -59 -32 -1 2 -44 84
-94 181 -50 97 -121 231 -157 297 -79 143 -129 256 -235 531 -79 206 -117 320
-298 900 -55 173 -103 323 -107 333 -4 9 -4 17 0 17 5 0 94 -85 199 -188z m14
100 c29 -6 37 -25 23 -49 -10 -17 -11 -17 -17 4 -3 12 -14 25 -24 28 -10 3
-24 13 -32 22 -11 15 -11 16 7 9 11 -5 30 -11 43 -14z m139 -68 c4 -10 -1 -22
-10 -29 -10 -7 -17 -15 -17 -19 0 -13 33 -5 57 14 14 11 34 20 44 20 26 0 51
-29 44 -51 -9 -26 7 -24 33 6 13 15 28 22 37 19 17 -7 21 -49 5 -59 -5 -3 -10
3 -10 14 0 25 -15 28 -24 5 -9 -22 1 -34 29 -34 16 0 26 8 31 23 l8 22 6 -25
c4 -19 13 -26 35 -28 27 -2 28 -1 13 11 -20 16 -23 33 -8 42 18 11 41 -22 34
-50 -7 -27 4 -33 24 -13 9 9 12 8 12 -5 0 -29 28 -19 35 13 9 42 22 38 17 -5
-2 -19 -1 -35 2 -35 3 0 18 26 32 58 30 65 44 55 20 -15 -20 -59 -20 -87 0
-50 19 36 35 35 28 -3 -7 -34 11 -42 21 -10 6 20 25 28 25 10 0 -5 -5 -21 -12
-35 -9 -19 -9 -28 0 -37 9 -9 12 -8 12 5 0 23 17 22 30 -2 31 -59 2 -94 -108
-131 l-71 -24 -100 67 c-146 97 -395 316 -379 333 10 9 28 -5 28 -23 0 -13 3
-13 15 -3 8 7 15 19 15 26 0 20 39 17 47 -2z m773 -14 c0 -5 -9 -10 -19 -10
-11 0 -23 5 -26 10 -4 6 5 10 19 10 14 0 26 -4 26 -10z m-80 -39 c-10 -20 -30
-29 -30 -14 0 10 33 44 37 39 3 -2 0 -14 -7 -25z m-966 -224 c32 -127 100
-360 152 -517 109 -332 118 -368 138 -555 23 -214 25 -250 41 -690 8 -225 18
-435 22 -465 l8 -55 6 65 c13 143 -18 1009 -41 1139 -12 67 -12 74 -1 67 15
-10 39 -119 45 -206 11 -162 28 -1030 21 -1075 l-6 -46 -52 44 c-29 24 -81 64
-117 89 -105 74 -100 62 -90 223 5 77 9 239 8 360 l-1 220 -8 -165 c-18 -368
-30 -515 -40 -525 -9 -7 -10 25 -5 120 13 254 25 662 25 830 -1 270 -17 153
-29 -214 -6 -179 -15 -409 -20 -510 -10 -221 -13 -228 -85 -186 -43 25 -46 29
-41 58 24 131 38 1088 16 1102 -7 4 -11 -61 -12 -187 l-2 -193 -6 145 c-13
250 -12 500 2 497 25 -5 37 135 19 244 -13 79 -26 619 -15 619 5 0 35 -105 68
-233z m1013 215 c-2 -11 -1 -37 3 -58 l7 -39 12 30 c6 17 18 44 26 60 13 27
15 28 15 7 0 -12 -9 -48 -20 -79 -11 -32 -20 -70 -20 -85 0 -42 -18 -34 -41
20 -27 62 -19 162 13 162 6 0 8 -8 5 -18z m143 -7 c0 -14 -4 -25 -10 -25 -5 0
-10 11 -10 25 0 14 5 25 10 25 6 0 10 -11 10 -25z m-16 -187 c-4 -46 -11 -92
-16 -103 -8 -20 -2 87 9 153 10 59 14 33 7 -50z m62 24 c-2 -10 -10 -56 -16
-103 -6 -47 -15 -92 -20 -99 -19 -30 -20 1 -5 91 21 130 24 141 36 134 5 -4 8
-14 5 -23z m-1283 -389 c2 -68 1 -123 -3 -123 -10 0 -20 191 -19 354 l2 141 7
-125 c5 -69 10 -180 13 -247z m1158 267 c-9 -24 -10 -24 -10 7 -1 17 2 40 7
50 6 15 7 14 10 -7 2 -14 -2 -37 -7 -50z m167 -75 c0 -61 0 -165 1 -232 1 -68
-1 -123 -3 -123 -3 0 -17 37 -31 83 -25 77 -26 87 -16 172 6 50 13 117 17 150
3 33 8 64 11 68 14 24 22 -19 21 -118z m-126 -27 c-9 -9 -12 -4 -11 23 0 32 1
33 11 11 8 -17 8 -26 0 -34z m-2175 -10 c42 -46 124 -208 135 -266 10 -53 9
-61 -16 -112 -15 -30 -36 -70 -48 -88 -14 -23 -22 -56 -26 -103 -2 -38 -8 -66
-12 -64 -16 10 -50 246 -75 522 -7 71 0 133 14 133 4 0 17 -10 28 -22z m1958
-97 c-15 -31 -35 -49 -35 -33 0 10 39 62 46 62 2 0 -2 -13 -11 -29z m428 -265
c3 -76 1 -123 -4 -115 -8 13 -13 257 -5 248 2 -2 6 -62 9 -133z m106 23 c1
-27 7 -38 25 -47 15 -7 27 -7 33 -1 6 6 14 4 23 -6 11 -13 10 -19 -4 -34 -14
-15 -19 -45 -23 -134 -6 -123 3 -214 17 -167 5 14 8 78 9 143 1 64 5 117 9
117 5 0 19 -11 31 -24 20 -22 24 -39 32 -158 12 -189 11 -441 -1 -433 -5 3
-10 34 -10 68 0 72 -11 97 -33 79 -20 -17 -27 4 -27 84 0 65 -14 86 -26 38 -5
-19 -9 -23 -18 -14 -7 7 -12 79 -14 203 -5 232 -22 279 -22 59 0 -151 -11
-200 -24 -99 -8 73 -8 392 1 401 10 10 21 -28 22 -75z m-401 -150 c3 -19 1
-22 -9 -11 -19 18 -27 15 -31 -10 -4 -27 -35 -36 -44 -14 -3 9 4 32 16 51 21
33 24 35 44 22 11 -8 23 -25 24 -38z m-1839 -176 c1 -78 -3 -144 -8 -147 -4
-3 -20 19 -35 49 -18 37 -37 60 -59 71 l-32 17 23 15 c14 9 22 25 23 46 1 41
10 61 29 61 8 0 22 14 30 31 23 48 28 20 29 -143z m-129 94 c0 -38 -12 -67
-26 -67 -17 0 -19 71 -2 88 15 15 28 6 28 -21z m2315 13 c7 -23 -2 -43 -16
-35 -12 8 -12 55 0 55 5 0 12 -9 16 -20z m-2302 -207 c54 -63 107 -142 107
-159 0 -23 -168 175 -200 235 -12 23 -12 23 11 7 13 -9 50 -46 82 -83z m2116
-175 c1 -118 5 -188 11 -188 6 0 10 54 10 143 0 95 3 137 10 127 11 -17 13
-307 4 -423 -5 -60 -10 -76 -24 -80 -16 -4 -18 -26 -24 -213 -4 -115 -11 -295
-16 -401 -12 -228 -13 -439 -2 -429 4 4 12 40 18 79 9 57 12 64 13 32 3 -82
33 -79 45 5 9 70 27 547 35 970 5 261 11 391 19 405 9 16 11 -35 12 -227 0
-137 4 -248 9 -248 4 0 11 84 15 187 12 306 25 251 26 -104 0 -291 6 -365 24
-317 3 9 6 64 7 122 0 59 5 130 9 157 6 30 8 -109 5 -353 -2 -247 1 -417 7
-439 6 -21 6 -38 1 -42 -5 -3 -15 -85 -21 -181 -14 -197 -15 -390 -2 -350 6
19 8 9 9 -37 1 -49 -2 -61 -13 -57 -14 5 -26 -23 -26 -65 0 -13 -3 -21 -7 -18
-10 10 -4 241 13 532 17 287 23 659 12 671 -22 22 -27 -36 -48 -541 -6 -148
-18 -366 -26 -483 -19 -265 -21 -258 117 -350 52 -34 95 -65 96 -70 1 -4 -20
-18 -47 -31 -39 -19 -59 -23 -98 -18 l-49 6 -12 -41 c-18 -59 -51 -88 -100
-88 -45 0 -50 -5 -71 -75 -15 -49 -17 -50 -60 -55 -40 -5 -47 -9 -69 -48 -31
-57 -49 -43 -32 24 16 61 54 137 102 199 53 71 87 149 103 241 7 43 18 80 23
81 29 10 46 34 54 74 8 44 13 226 5 218 -2 -2 -9 -53 -16 -114 -11 -103 -21
-138 -36 -122 -4 3 1 88 10 189 21 235 21 308 1 308 -24 0 -33 -63 -39 -280
-4 -113 -10 -218 -15 -235 -5 -18 -7 74 -4 220 4 282 -9 306 -26 48 -6 -87
-14 -171 -18 -188 l-6 -30 -7 25 c-4 14 -5 59 -3 100 4 96 21 431 33 675 5
105 14 384 20 620 12 523 21 729 31 695 4 -14 7 -109 8 -212z m-769 -137 c0
-10 13 -38 30 -62 16 -25 36 -71 44 -103 35 -133 72 -456 96 -831 13 -209 13
-235 -2 -235 -7 1 -42 27 -77 58 l-63 58 -9 324 c-8 320 -23 633 -36 759 -4
47 -3 62 5 57 7 -4 12 -15 12 -25z m-509 -471 l-8 -75 -2 116 c0 64 2 152 7
195 l7 79 3 -120 c1 -66 -2 -154 -7 -195z m-1252 183 c12 -14 23 -36 26 -47 2
-12 17 -84 34 -161 17 -77 33 -162 36 -190 10 -80 12 -82 45 -50 27 26 30 27
37 9 4 -10 14 -25 22 -31 13 -11 10 -12 -16 -7 -29 6 -39 1 -87 -43 -60 -55
-127 -98 -169 -108 -33 -9 -34 4 -3 34 70 66 94 231 58 396 -45 199 -39 270
17 198z m2867 -48 c-10 -57 -26 -470 -41 -1029 -7 -307 -17 -561 -21 -565 -8
-7 3 766 16 1084 5 127 12 308 16 404 6 153 9 172 21 155 8 -11 12 -31 9 -49z
m-2756 -99 c31 -47 35 -56 22 -56 -9 0 -72 80 -72 92 0 20 22 4 50 -36z m2440
-53 c-4 -56 -5 -57 -8 -14 -3 38 2 71 10 71 2 0 1 -26 -2 -57z m340 -578 c-5
-324 -9 -664 -10 -755 0 -110 -4 -160 -10 -150 -22 34 3 1521 25 1498 2 -2 -1
-268 -5 -593z m587 478 c3 -8 1 -19 -5 -25 -12 -12 -55 13 -122 71 l-35 31 78
-32 c44 -17 81 -38 84 -45z m-3337 52 c7 -8 18 -15 25 -15 18 0 64 -56 72 -88
3 -15 20 -43 36 -62 46 -52 107 -151 107 -172 0 -28 -18 -21 -36 15 -16 30
-170 266 -181 277 -3 3 -4 -12 -1 -33 2 -23 0 -36 -6 -34 -11 4 -46 92 -46
115 0 16 15 15 30 -3z m2802 -816 c-6 -459 -13 -682 -20 -695 -14 -24 -14 11
-2 666 9 507 22 863 28 760 2 -30 -1 -359 -6 -731z m147 508 c43 -122 41 -145
-7 -111 -27 19 -28 5 -2 -38 29 -48 26 -92 -7 -116 l-27 -19 22 -58 c28 -72
28 -88 -3 -133 -14 -20 -25 -44 -25 -53 0 -34 46 -73 134 -114 160 -74 193
-122 184 -263 -10 -135 -98 -319 -174 -364 -36 -21 -170 -52 -185 -43 -10 7
-13 1355 -2 1456 l7 64 27 -60 c15 -33 41 -100 58 -148z m-542 161 c-3 -8 -6
-5 -6 6 -1 11 2 17 5 13 3 -3 4 -12 1 -19z m-2337 3 c0 -4 18 -34 39 -66 22
-32 37 -63 34 -68 -7 -12 -53 33 -53 53 0 10 -9 29 -20 43 -22 27 -26 47 -10
47 6 0 10 -4 10 -9z m3240 -23 c0 -7 7 -80 15 -163 17 -178 18 -195 6 -195
-20 0 -33 72 -38 218 -4 111 -3 152 5 152 7 0 12 -6 12 -12z m-90 -87 c0 -10
-61 -41 -80 -41 -23 0 -3 24 31 36 43 16 49 16 49 5z m-10 -76 c0 -2 -9 -9
-20 -15 -22 -12 -44 -5 -35 11 6 9 55 13 55 4z m-2130 -32 c0 -5 -7 -16 -14
-26 -12 -16 -14 -16 -20 -1 -10 26 -7 34 14 34 11 0 20 -3 20 -7z m1330 -29
c0 -8 -7 -14 -15 -14 -15 0 -21 21 -9 33 10 9 24 -2 24 -19z m-1270 -19 c44
-33 50 -43 39 -72 -5 -14 -9 -38 -9 -54 0 -25 -4 -29 -27 -29 -16 0 -39 3 -52
7 -23 6 -23 8 -18 79 8 104 13 109 67 69z m2075 -36 c9 -17 14 -38 12 -47 -3
-12 -9 -6 -20 20 -27 60 -20 82 8 27z m-1972 -126 c4 10 7 30 7 43 0 13 5 24
11 24 13 0 197 -158 233 -200 27 -32 27 -50 0 -50 -9 0 -66 30 -128 68 -63 37
-128 75 -145 84 -26 14 -30 21 -23 35 5 10 13 36 18 58 l8 40 6 -60 c3 -40 7
-54 13 -42z m2116 -159 c-6 -8 -21 -14 -33 -14 -21 1 -21 1 3 20 25 22 49 17
30 -6z m-3369 1 c10 -12 9 -15 -6 -15 -11 1 -30 7 -44 15 l-25 14 31 1 c17 0
37 -7 44 -15z m1586 -22 c19 -16 39 -41 44 -58 6 -18 27 -40 51 -55 46 -28
189 -172 189 -190 0 -15 -32 8 -167 124 -81 69 -113 103 -113 119 0 17 -2 19
-10 7 -5 -8 -12 -11 -16 -8 -8 8 -23 88 -17 88 2 0 20 -12 39 -27z m-304 -72
c228 -154 281 -238 87 -137 -46 24 -101 49 -121 56 -37 11 -38 13 -38 61 0 31
-4 48 -10 44 -5 -3 -10 -24 -10 -46 0 -24 -4 -38 -10 -34 -10 6 -15 125 -5
125 2 0 51 -31 107 -69z m-1407 49 c8 -14 66 -43 72 -37 2 3 0 15 -7 26 -9 17
-8 21 5 21 67 0 129 -131 105 -221 -6 -21 -14 -39 -19 -39 -4 0 -11 34 -15 76
-6 76 -19 109 -38 98 -6 -4 -7 -33 -3 -75 6 -59 5 -69 -9 -69 -9 0 -18 11 -21
25 -3 14 -7 36 -10 49 -3 13 -14 34 -25 47 l-19 24 -1 -27 c0 -15 5 -30 10
-33 12 -7 14 -85 2 -85 -5 0 -21 27 -36 60 -39 84 -66 80 -30 -5 26 -63 12
-76 -26 -22 -36 50 -57 62 -45 25 3 -13 9 -34 12 -48 5 -24 5 -24 -29 8 -53
50 -65 40 -23 -21 37 -55 -1 -61 -49 -8 -11 12 -28 21 -38 21 -17 0 -16 -4 11
-37 38 -47 30 -60 -20 -31 -49 27 -61 17 -24 -22 35 -37 26 -49 -20 -27 -47
23 -58 22 -45 -2 13 -26 -1 -34 -35 -21 -34 13 -85 13 -85 0 0 -5 11 -10 24
-10 25 0 87 -38 94 -57 2 -8 -6 -13 -22 -13 -39 0 -40 -16 0 -60 20 -22 35
-43 32 -46 -3 -2 -24 8 -47 22 -36 24 -41 32 -41 64 0 40 -14 60 -42 60 -14 0
-18 8 -18 33 0 40 15 57 50 57 31 0 43 8 60 39 14 28 -2 44 -35 35 -34 -10
-40 -23 -14 -33 21 -8 22 -10 7 -16 -26 -10 -48 1 -48 24 0 27 48 51 94 48 46
-3 47 15 2 27 -20 5 -36 13 -36 18 0 18 31 20 75 5 24 -9 47 -12 50 -7 3 4 -9
13 -25 19 -17 5 -30 17 -30 25 0 18 5 19 28 7 29 -14 72 -22 72 -12 0 5 -16
15 -36 21 -55 18 -28 37 30 20 59 -16 81 -8 37 14 -24 13 -30 21 -22 29 8 8
20 6 46 -6 38 -18 75 -22 75 -9 0 5 -12 15 -27 22 l-28 13 30 13 c36 16 111
18 120 4z m194 -26 c17 -14 40 -45 50 -70 11 -24 32 -60 47 -79 23 -31 25 -38
15 -63 -14 -32 -89 -118 -97 -109 -3 3 2 19 11 36 9 17 11 31 5 31 -5 0 -10
-4 -10 -10 0 -5 -5 -10 -11 -10 -8 0 -9 19 -3 63 14 109 2 171 -40 206 -18 15
-21 31 -7 31 5 0 23 -12 40 -26z m-489 8 c0 -5 -9 -17 -20 -27 -16 -14 -20
-15 -20 -4 0 16 19 39 32 39 4 0 8 -4 8 -8z m658 -234 c-6 -18 -13 -27 -16
-20 -6 19 7 64 18 57 5 -3 4 -19 -2 -37z m-268 -69 c46 -46 47 -52 20 -96 -22
-38 -67 -63 -109 -63 -61 0 -136 95 -113 144 13 30 67 55 119 56 36 0 48 -6
83 -41z m1695 -44 c48 -47 86 -88 82 -91 -3 -4 -27 13 -52 37 -25 24 -53 48
-63 53 -29 15 -82 69 -76 78 10 15 20 8 109 -77z m-1475 30 c0 -19 -30 -49
-70 -70 -50 -26 -49 -7 2 41 49 46 68 54 68 29z m-428 -146 c34 -43 72 -67
123 -80 l30 -7 -30 -1 c-52 -2 -101 18 -146 57 -30 27 -41 43 -36 55 10 26 23
21 59 -24z m348 21 c0 -14 -35 -30 -64 -30 -34 0 -33 16 2 28 36 14 62 14 62
2z m-695 -109 c-5 -26 -9 -31 -16 -20 -11 17 -12 103 -2 113 12 12 25 -55 18
-93z m281 49 c55 -45 115 -68 212 -80 66 -9 65 -9 -28 -6 -68 2 -105 7 -130
20 -45 23 -130 88 -130 98 0 18 31 5 76 -32z m3749 -91 c-31 -80 -31 -123 2
-127 13 -2 36 6 52 17 31 22 46 27 36 11 -8 -13 6 -110 16 -110 5 0 9 17 9 38
0 45 24 138 41 158 24 30 27 -3 8 -96 -21 -104 -39 -140 -69 -140 -14 0 -20
-7 -20 -21 0 -11 -14 -52 -30 -91 -17 -39 -29 -73 -27 -75 2 -2 21 17 41 42
21 25 41 45 46 45 21 0 19 -38 -4 -82 -26 -50 -22 -62 9 -28 25 28 38 25 53
-10 13 -28 12 -32 -23 -75 -38 -46 -55 -56 -55 -31 0 19 -39 66 -55 66 -16 0
-45 -27 -45 -41 0 -5 11 -7 24 -3 20 5 27 0 40 -27 9 -18 16 -42 16 -55 0 -22
-54 -94 -70 -94 -5 0 -11 15 -15 33 -4 17 -17 48 -30 68 l-24 36 23 46 c41 81
42 255 1 296 -25 25 -28 4 -10 -71 21 -86 13 -146 -35 -254 -30 -65 -38 -114
-21 -114 5 0 14 14 20 31 12 36 31 30 31 -11 0 -16 5 -32 10 -35 17 -11 11
-61 -11 -89 l-21 -26 -29 27 c-16 16 -29 38 -29 50 0 17 -4 21 -17 16 -18 -7
-17 3 12 152 12 63 32 380 35 560 0 26 6 33 35 44 19 7 50 31 68 53 l32 40 3
-28 c2 -15 -8 -58 -23 -95z m95 24 c-10 -38 -55 -102 -64 -92 -3 2 8 31 24 63
17 32 30 66 30 76 0 9 3 20 8 24 12 13 14 -30 2 -71z m-4055 49 c6 -4 16 -15
24 -24 12 -16 11 -18 -2 -18 -17 0 -47 26 -47 41 0 11 11 12 25 1z m666 -12
c-25 -21 -51 -26 -51 -10 0 13 31 29 55 29 19 0 19 -1 -4 -19z m1172 -82 l-4
-53 20 25 21 25 0 -22 c0 -28 7 -29 33 -5 19 16 20 16 14 -6 -8 -34 2 -56 18
-42 17 14 48 -4 66 -37 7 -13 15 -23 19 -23 12 0 104 -89 98 -95 -6 -6 -145
68 -200 106 -14 11 -33 19 -41 19 -9 0 -32 10 -52 23 -35 21 -36 24 -31 71 9
88 46 102 39 14z m-1828 12 c13 -14 15 -24 8 -31 -8 -8 -15 -4 -27 12 -28 41
-14 55 19 19z m2805 -17 c0 -23 -52 -125 -118 -233 -29 -47 -59 -106 -68 -132
-15 -45 -30 -66 -40 -55 -11 10 50 139 121 256 40 67 77 136 80 152 7 31 25
40 25 12z m-2980 -32 c-9 -18 -39 -35 -47 -28 -2 2 6 16 18 31 23 29 45 26 29
-3z m3950 -181 c-15 -222 -34 -334 -82 -478 -43 -130 -168 -393 -213 -447 -39
-47 -40 -21 -2 42 49 82 141 286 171 381 60 191 106 436 106 572 0 36 3 83 7
105 l6 40 9 -30 c4 -16 3 -100 -2 -185z m530 151 c5 -11 10 -30 10 -43 l0 -23
-20 25 c-21 26 -27 60 -10 60 5 0 14 -9 20 -19z m-595 -153 c-17 -142 -51
-325 -80 -425 -11 -36 -25 -60 -45 -75 -17 -12 -30 -26 -30 -31 0 -5 7 -4 15
3 23 19 37 3 20 -23 -8 -12 -21 -41 -29 -63 -7 -22 -29 -67 -47 -99 -30 -53
-34 -56 -46 -39 -20 28 -17 57 6 49 15 -4 18 -1 14 19 -4 18 3 33 22 52 26 26
26 29 15 70 -10 34 -10 47 -1 58 10 12 7 15 -15 18 -26 3 -29 8 -44 79 -9 42
-36 129 -59 193 -49 128 -48 136 16 163 44 18 64 17 61 -4 -2 -13 3 -17 17
-15 42 8 117 80 183 176 18 27 36 46 39 43 3 -3 -2 -70 -12 -149z m-3845 112
c11 -11 20 -33 20 -49 0 -23 -7 -32 -36 -46 -20 -9 -38 -15 -40 -12 -3 2 3 21
12 41 21 44 14 55 -22 31 -29 -19 -25 -6 9 33 25 27 32 27 57 2z m4418 -38 c2
-13 -7 -35 -22 -53 -14 -17 -26 -38 -26 -47 1 -12 11 -5 33 21 36 42 52 46 67
18 16 -30 13 -71 -6 -71 -8 0 -22 -16 -30 -35 -8 -19 -19 -35 -24 -35 -12 0
-60 93 -60 116 0 26 44 113 55 110 6 -1 11 -12 13 -24z m-3248 -89 c0 -32 -7
-70 -14 -85 -9 -16 -11 -30 -5 -33 5 -4 9 -15 9 -26 0 -27 -46 -44 -79 -29
-27 12 -36 8 -28 -14 4 -10 27 -17 65 -22 l60 -6 -5 -67 c-7 -95 -17 -101 -95
-62 -36 17 -69 31 -75 31 -6 0 -13 7 -16 15 -10 25 -89 75 -144 91 -29 8 -53
19 -53 23 0 4 26 21 58 37 66 33 211 129 262 173 51 44 60 41 60 -26z m-1086
-32 c53 -79 183 -206 232 -227 30 -12 34 -19 34 -50 0 -23 -10 -51 -29 -77
-15 -23 -34 -59 -40 -79 -7 -21 -17 -38 -22 -38 -14 0 -11 81 5 133 8 26 10
47 5 47 -11 0 -43 -63 -59 -117 -7 -24 -17 -43 -22 -43 -14 0 -9 66 12 132 11
34 20 67 20 72 0 17 -33 -20 -61 -69 -28 -48 -29 -49 -29 -19 0 17 7 52 16 78
25 74 3 76 -43 3 -35 -54 -42 -30 -13 43 11 29 18 55 15 58 -3 3 -19 -7 -35
-23 -16 -16 -32 -26 -36 -23 -3 4 4 28 15 53 12 26 21 54 21 62 0 22 -36 -2
-64 -43 -13 -20 -27 -31 -30 -25 -8 12 16 71 45 112 27 38 18 48 -17 20 -55
-43 -60 -14 -8 47 19 23 37 42 39 42 2 0 24 -31 49 -69z m3337 54 c-1 -5 -38
-15 -80 -21 -93 -13 -140 -41 -287 -170 -56 -49 -127 -110 -158 -137 -30 -26
-63 -61 -73 -77 -22 -38 -33 -38 -33 1 0 19 8 37 23 49 12 10 100 86 194 168
177 153 212 177 286 192 54 11 133 8 128 -5z m909 9 c0 -3 -11 -15 -25 -26
-25 -20 -60 -76 -52 -84 2 -2 12 5 22 16 19 21 45 27 45 11 0 -6 -4 -13 -10
-16 -18 -11 -11 -23 10 -18 31 8 25 -28 -10 -62 -26 -25 -32 -27 -40 -15 -5 8
-10 18 -10 22 0 3 -20 28 -44 54 -48 51 -50 64 -9 64 14 0 41 13 60 30 30 27
63 39 63 24z m-4110 -68 c-1 -21 -1 -21 -20 3 -11 13 -20 33 -20 45 1 21 1 21
20 -3 11 -13 20 -33 20 -45z m3235 -26 c0 -11 -11 -15 -40 -16 -22 0 -39 -4
-39 -10 1 -5 21 -19 45 -32 62 -32 107 -92 58 -77 -12 4 -47 22 -78 41 -57 35
-96 44 -89 22 3 -7 19 -22 37 -33 83 -52 181 -128 181 -141 0 -21 -13 -17 -39
10 -45 48 -261 131 -261 100 0 -13 74 -57 162 -97 79 -36 125 -81 99 -97 -21
-12 -134 22 -195 59 -50 31 -154 57 -169 42 -15 -15 2 -27 52 -36 66 -12 336
-160 324 -177 -11 -18 -87 -1 -178 40 -49 22 -122 49 -160 60 -50 13 -87 31
-124 60 -41 32 -48 42 -32 42 14 0 21 6 21 19 0 50 195 185 340 235 31 10 85
1 85 -14z m1105 -1 c0 -5 -18 -29 -40 -53 -22 -24 -56 -79 -75 -122 -25 -59
-40 -81 -59 -88 -37 -14 -43 0 -13 30 34 33 86 137 93 185 4 22 11 36 18 33 6
-2 22 5 36 15 24 19 40 19 40 0z m-4166 -62 c11 -62 0 -75 -45 -52 -52 27
-100 66 -96 78 5 16 44 26 92 24 39 -2 40 -3 49 -50z m3952 -62 c-27 -35 -46
-45 -46 -24 0 5 12 25 27 44 37 47 55 28 19 -20z m-2885 -24 c95 -32 259 -120
259 -138 0 -9 -37 -55 -83 -102 -45 -47 -102 -111 -126 -141 -41 -52 -95 -89
-133 -90 -39 0 -12 34 36 46 27 6 28 8 11 20 -17 13 -15 17 24 66 63 79 95
128 88 135 -4 3 -45 -31 -92 -75 -46 -45 -89 -82 -94 -82 -33 0 -17 52 52 167
27 46 47 87 43 90 -10 10 -104 -85 -133 -135 -14 -23 -28 -40 -33 -37 -4 2
-10 23 -14 46 -7 45 10 83 58 128 24 23 36 61 19 61 -4 0 -33 -26 -65 -57 -64
-64 -73 -55 -27 25 51 90 106 109 210 73z m2919 5 c0 -19 -46 -73 -55 -64 -6
6 41 78 51 78 2 0 4 -6 4 -14z m-1645 -424 c21 -52 51 -74 140 -103 125 -39
207 -91 190 -119 -11 -18 -49 -4 -122 45 -37 25 -86 51 -108 58 -22 6 -58 30
-81 52 -60 61 -78 135 -72 303 7 195 22 186 29 -18 5 -132 11 -186 24 -218z
m-2275 324 c0 -6 -7 -22 -16 -34 -9 -13 -13 -26 -10 -29 8 -9 37 18 47 45 15
39 44 24 42 -21 -3 -48 8 -47 41 3 30 46 56 53 56 14 0 -30 17 -23 30 12 6 15
18 24 30 24 24 0 38 -26 21 -43 -6 -6 -11 -18 -11 -26 0 -9 12 -1 29 19 37 44
56 33 41 -22 -9 -31 -92 -158 -104 -158 -2 0 -2 19 1 43 l6 42 -36 -34 c-35
-33 -57 -35 -57 -3 -1 15 -2 15 -15 -2 -8 -11 -15 -39 -15 -63 0 -24 -3 -43
-7 -43 -23 1 -36 23 -42 71 l-6 54 -18 -54 c-9 -29 -17 -62 -17 -73 0 -39 -27
0 -35 49 -7 47 -41 93 -70 93 -19 0 -19 14 0 30 8 7 15 18 14 24 -6 49 42 109
80 99 11 -3 21 -11 21 -17z m3772 -38 c-17 -18 -34 -29 -38 -25 -3 3 8 20 25
38 18 17 35 28 38 25 4 -4 -7 -21 -25 -38z m-3267 -55 c7 -31 25 -29 25 2 0
14 4 25 9 25 20 0 53 -38 59 -68 8 -38 27 -43 27 -8 0 34 8 39 39 25 20 -10
30 -25 42 -68 21 -77 35 -111 45 -111 4 0 9 -14 11 -32 2 -25 9 -34 28 -38 14
-3 30 -16 37 -29 6 -13 17 -27 24 -31 9 -6 7 -17 -10 -43 -40 -65 -48 -66 -72
-8 -24 57 -35 59 -30 5 1 -18 -2 -34 -8 -34 -10 0 -37 67 -72 178 -11 37 -22
73 -24 80 -5 13 -25 17 -25 4 0 -5 11 -46 25 -92 25 -85 32 -150 16 -150 -5 0
-14 19 -19 43 -20 86 -72 200 -72 157 0 -8 7 -36 15 -62 8 -28 10 -48 4 -48
-14 0 -48 59 -61 107 -12 44 -43 92 -52 82 -4 -3 5 -31 19 -63 25 -57 32 -92
17 -82 -5 3 -30 42 -56 87 -26 44 -50 78 -53 75 -3 -3 3 -18 13 -33 22 -33 44
-90 44 -115 0 -33 -17 -19 -37 30 -11 26 -34 69 -52 96 -36 59 -41 82 -12 66
17 -9 20 -6 23 18 2 21 8 27 26 26 12 0 22 3 22 8 0 4 -4 8 -10 8 -5 0 -10 7
-10 15 0 26 38 17 54 -12 14 -26 15 -26 16 -6 0 12 5 34 12 50 l12 28 3 -30
c2 -16 6 -40 8 -52z m846 -151 c-11 -46 -17 -90 -15 -97 7 -18 -38 -108 -87
-171 -21 -28 -49 -71 -62 -95 -21 -40 -76 -89 -100 -89 -5 0 2 15 15 33 14 17
33 48 43 67 9 19 32 58 51 85 36 54 130 265 145 329 13 51 23 67 27 41 1 -11
-6 -58 -17 -103z m137 82 c14 -9 21 -22 18 -32 -3 -9 -10 -53 -16 -97 -23
-151 -31 -183 -62 -231 -17 -27 -46 -79 -65 -116 -22 -43 -48 -75 -71 -92 -44
-30 -92 -49 -92 -36 0 5 9 12 20 15 25 8 80 53 80 66 0 5 27 65 59 132 89 184
139 376 100 385 -14 2 -20 -14 -33 -85 -9 -48 -16 -101 -16 -118 0 -36 -36
-117 -82 -183 -67 -97 -170 -190 -200 -180 -7 3 8 15 32 29 44 24 50 32 90
119 12 25 36 72 55 105 40 71 91 218 101 293 7 51 8 53 33 47 14 -3 36 -13 49
-21z m2266 -1 c-23 -101 -22 -100 -71 -117 -55 -19 -53 -19 -53 -6 0 5 17 21
39 34 26 17 44 39 57 70 21 51 38 62 28 19z m-1183 -4 c6 -13 9 -47 7 -80 -3
-48 -10 -65 -32 -88 l-28 -29 22 -12 c12 -6 45 -14 74 -17 93 -10 156 38 156
119 0 77 25 100 56 53 10 -15 26 -25 41 -25 l24 0 -21 -30 c-12 -17 -36 -38
-53 -47 -28 -15 -29 -18 -12 -21 31 -6 41 -21 19 -27 -10 -4 -27 -11 -36 -16
-10 -5 -23 -9 -30 -9 -6 0 -31 -10 -55 -21 -42 -20 -46 -21 -96 -5 -29 8 -86
23 -127 32 -41 9 -86 23 -98 31 -28 17 -52 70 -52 112 0 34 36 65 67 59 26 -4
63 -84 63 -135 0 -42 11 -55 26 -31 14 23 5 120 -15 158 -11 21 -17 41 -14 44
4 3 28 6 54 6 39 0 50 -4 60 -21z m1119 -9 c-11 -20 -30 -28 -30 -12 0 11 22
32 32 32 5 0 4 -9 -2 -20z m-2410 -14 c0 -33 -45 -209 -62 -241 -18 -33 -141
-185 -147 -180 -12 12 15 77 50 124 42 55 128 241 134 290 2 14 4 27 4 29 1 1
6 2 11 2 6 0 10 -11 10 -24z m1440 -2 c6 -14 10 -42 10 -63 0 -32 -7 -45 -40
-75 -22 -20 -50 -36 -61 -36 -18 0 -20 4 -15 28 3 15 9 54 12 87 8 83 9 85 49
85 29 0 37 -5 45 -26z m-2372 -41 c27 -36 62 -95 62 -108 0 -19 -25 3 -59 53
-21 32 -46 64 -55 71 -9 7 -16 20 -16 28 0 21 33 0 68 -44z m2812 3 c23 -49
19 -72 -22 -100 -20 -14 -22 -13 -35 11 -23 45 -10 133 21 133 8 0 24 -20 36
-44z m-1594 7 c-3 -16 -10 -73 -16 -128 -13 -117 -33 -185 -65 -223 -13 -16
-33 -52 -44 -81 -31 -82 -80 -145 -98 -127 -3 3 11 38 30 78 81 166 109 236
133 332 42 169 44 176 56 176 6 0 8 -11 4 -27z m1859 -89 c-14 -21 -14 -24 0
-24 23 0 18 -18 -11 -36 l-26 -17 22 -12 c20 -11 18 -13 -30 -39 -28 -15 -54
-26 -56 -23 -3 3 4 24 16 48 12 23 33 70 45 103 13 34 29 75 36 91 l14 30 3
-48 c2 -32 -2 -57 -13 -73z m-3108 28 c24 -41 26 -61 4 -48 -17 11 -71 96 -71
113 0 24 35 -10 67 -65z m878 31 c-4 -21 -20 -68 -35 -105 -48 -113 -165 -264
-188 -243 -3 3 54 97 98 161 28 40 80 148 80 166 0 14 31 58 42 58 6 0 8 -15
3 -37z m420 -74 c-9 -41 -13 -88 -10 -106 6 -31 -19 -161 -37 -195 -5 -10 -14
-18 -21 -18 -7 0 -30 -36 -50 -80 -32 -68 -69 -112 -83 -98 -2 3 12 37 31 77
19 40 35 77 35 83 0 6 13 32 29 58 41 67 61 131 72 231 10 99 25 147 40 132 6
-6 4 -35 -6 -84z m1975 72 c0 -9 -85 -91 -95 -91 -13 0 -2 20 33 58 37 39 62
53 62 33z m-542 -47 c30 -34 28 -73 -5 -102 l-28 -23 38 5 c45 6 47 -3 6 -27
-26 -14 -29 -20 -19 -32 7 -9 10 -18 8 -21 -3 -3 -16 8 -28 23 -17 21 -21 37
-17 66 4 30 2 37 -12 37 -9 0 -39 14 -65 31 -44 27 -47 32 -34 46 20 19 75 33
108 27 14 -3 35 -16 48 -30z m-2793 -6 c32 -37 16 -52 -19 -19 -30 29 -36 27
-36 -14 0 -33 -20 -55 -49 -55 -13 0 -55 59 -48 67 4 3 21 -7 39 -22 35 -30
49 -20 24 17 -22 30 -20 35 12 46 42 16 48 14 77 -20z m623 20 c9 -9 8 -16 -5
-30 -31 -35 -55 -19 -33 23 12 22 21 24 38 7z m2017 -78 c21 -40 19 -60 -5
-60 -24 0 -39 32 -32 67 6 31 18 29 37 -7z m-2805 -11 c6 -11 10 -24 8 -30 -4
-13 -48 19 -48 37 0 21 28 17 40 -7z m955 -36 c-17 -40 -21 -46 -83 -120 -44
-53 -67 -68 -55 -35 7 19 89 148 111 175 8 9 21 17 29 17 11 0 10 -7 -2 -37z
m-986 -17 c26 -41 26 -46 1 -46 -13 0 -22 -10 -28 -32 l-9 -33 -8 38 c-8 41 1
107 15 107 4 0 18 -15 29 -34z m891 -9 c0 -40 -120 -138 -167 -137 -13 1 -9 6
12 17 45 23 86 64 101 101 14 32 54 46 54 19z m1811 -24 c3 -17 0 -44 -7 -61
-14 -34 -52 -52 -65 -31 -15 24 -10 40 21 57 16 9 30 20 30 25 0 11 -38 9 -45
-3 -3 -5 -12 -10 -18 -10 -7 1 4 14 23 30 41 36 52 34 61 -7z m-2551 17 c0
-13 -34 -30 -59 -30 -30 0 -26 17 7 28 36 14 52 14 52 2z m2730 -9 c15 -30 12
-48 -10 -54 -11 -3 -20 -12 -20 -21 0 -13 5 -14 26 -6 31 12 34 12 34 0 0 -5
-11 -17 -25 -26 -20 -13 -28 -14 -40 -4 -17 14 -20 66 -5 104 11 31 25 33 40
7z m568 2 c-2 -12 -17 -20 -48 -25 -64 -11 -72 -4 -20 21 55 25 72 26 68 4z
m-3078 -42 c52 -41 168 -145 302 -270 75 -70 81 -73 116 -67 84 14 142 18 142
10 0 -5 -7 -17 -14 -27 -11 -14 -30 -17 -129 -17 -64 0 -128 -5 -143 -10 -19
-8 -29 -8 -34 0 -5 7 -15 8 -33 1 -15 -6 -27 -7 -27 -1 0 14 52 51 82 57 16 3
28 10 28 15 0 13 -65 1 -103 -19 -16 -8 -31 -12 -35 -9 -6 7 -8 6 43 39 44 30
28 36 -29 12 -21 -9 -36 -11 -36 -5 0 5 -10 10 -22 10 -17 0 -19 3 -10 12 16
16 15 41 0 35 -7 -2 -24 -8 -38 -12 l-25 -7 24 26 24 26 -24 0 c-14 0 -34 6
-45 14 -16 13 -17 18 -6 35 11 19 10 21 -18 21 -42 0 -37 15 10 34 22 9 40 19
40 22 0 4 -24 4 -52 0 l-53 -6 30 26 c23 20 25 24 10 20 -130 -35 -160 -31
-71 8 52 23 67 46 30 46 -8 0 -14 5 -14 10 0 20 32 9 80 -29z m-455 20 c9 -15
-13 -23 -81 -29 -68 -5 -87 8 -36 26 35 13 109 15 117 3z m545 -16 c7 -8 8
-15 2 -15 -5 0 -15 7 -22 15 -7 8 -8 15 -2 15 5 0 15 -7 22 -15z m1140 -37 c0
-34 -33 -88 -45 -76 -9 9 26 108 37 108 4 0 8 -15 8 -32z m1446 13 c-10 -11
-31 -24 -47 -30 -45 -16 -37 13 9 32 50 21 58 21 38 -2z m-2950 -36 c-9 -13
-16 -32 -16 -42 0 -14 7 -10 28 15 44 52 68 41 35 -17 -21 -36 -24 -36 -63
-16 -36 18 -37 31 -8 62 29 30 45 29 24 -2z m1554 -47 c0 -23 -53 -142 -78
-176 -26 -37 -98 -92 -118 -92 -7 0 10 24 38 52 28 29 62 77 75 108 47 105 55
120 69 120 8 0 14 -6 14 -12z m-1475 -30 c-15 -48 -43 -51 -31 -3 4 14 13 25
22 25 11 0 14 -6 9 -22z m1870 -27 c-7 -23 -25 -29 -25 -8 0 14 21 39 28 33 2
-3 1 -14 -3 -25z m-1837 -39 c-11 -44 -22 -53 -32 -26 -6 17 -2 29 22 57 21
24 23 18 10 -31z m-94 3 c-8 -19 -66 -55 -89 -55 -27 0 -12 23 36 51 46 27 62
29 53 4z m155 -7 c-20 -70 -3 -107 21 -48 19 45 33 37 28 -15 -6 -53 -3 -59
28 -38 23 15 24 15 24 -14 0 -38 9 -47 30 -28 14 13 19 13 28 2 21 -25 -56
-147 -93 -147 -26 0 -23 15 11 44 46 40 40 54 -41 107 -92 59 -101 89 -47 152
21 23 22 22 11 -15z m3464 11 c20 -5 37 -14 37 -19 0 -6 0 -13 0 -17 0 -5 -42
-8 -93 -8 -50 -1 -102 -4 -114 -9 -21 -7 -23 -5 -23 21 0 47 16 56 90 49 36
-4 82 -11 103 -17z m-2883 1 c-20 -13 -40 -13 -40 0 0 6 12 10 28 10 21 0 24
-2 12 -10z m820 -54 c-14 -45 -68 -118 -80 -111 -9 6 48 132 74 164 17 21 20
-10 6 -53z m-148 29 c-5 -25 -49 -85 -63 -85 -11 0 -6 22 17 78 15 37 52 43
46 7z m-652 -24 c0 -13 -57 -31 -96 -31 -34 0 -50 12 -39 30 8 12 135 13 135
1z m1150 -4 c0 -8 -15 -31 -34 -53 -27 -31 -37 -36 -47 -27 -10 10 -4 21 28
53 43 43 53 48 53 27z m-305 -52 c-7 -25 -21 -57 -29 -70 -17 -25 -46 -34 -46
-15 0 26 65 130 80 130 5 0 3 -20 -5 -45z m2002 -12 c17 -22 17 -22 -8 -62
-19 -31 -23 -33 -59 -27 -41 6 -70 0 -70 -16 0 -6 14 -8 30 -6 32 5 41 -6 14
-16 -33 -13 -63 -5 -83 20 -27 34 -26 55 2 82 54 51 146 64 174 25z m-2732
-53 c-3 -5 4 -14 16 -20 20 -11 20 -12 3 -31 -24 -27 -68 -22 -72 8 -4 24 33
67 49 58 5 -4 7 -10 4 -15z m2851 -35 c23 -18 10 -18 -36 0 -32 12 -33 14 -9
14 14 1 34 -6 45 -14z m-3303 -61 c20 -12 31 -27 29 -38 -3 -14 1 -16 18 -11
54 17 140 -48 140 -106 0 -17 -13 -49 -30 -74 -16 -24 -30 -50 -30 -57 0 -20
-27 -54 -36 -46 -4 4 0 31 9 59 23 69 22 73 -14 65 -34 -7 -83 14 -93 39 -3 9
-6 42 -6 73 0 44 -6 64 -26 94 -18 25 -24 43 -19 55 6 16 8 15 17 -7 5 -14 23
-34 41 -46z m515 39 c-24 -51 -33 -63 -44 -63 -27 0 -27 24 0 47 26 22 52 31
44 16z m-202 -14 c3 -6 -6 -24 -22 -40 -41 -43 -22 -46 24 -4 l40 36 25 -32
25 -33 -25 -33 c-31 -40 -26 -51 10 -23 54 43 167 13 167 -44 0 -36 -60 -78
-132 -91 -54 -10 -73 0 -87 45 -7 23 -24 49 -41 62 -17 12 -30 28 -30 37 0 8
-7 23 -16 32 -15 17 -15 20 1 45 26 40 3 53 -24 15 -24 -33 -41 -40 -41 -17 0
38 106 76 126 45z m326 -11 c46 -13 98 -68 98 -103 0 -39 -17 -38 -41 4 -25
45 -39 51 -131 51 -72 0 -82 6 -45 30 49 33 63 35 119 18z m2286 -108 c14 -22
22 -46 20 -65 -4 -38 -21 -36 -29 4 -4 17 -14 42 -23 55 -9 14 -16 30 -16 36
0 20 24 5 48 -30z m-2348 -165 c0 -30 -10 -55 -21 -55 -10 0 -12 73 -3 83 12
11 24 -3 24 -28z"/>
<path d="M5457 11751 c-29 -64 -32 -75 -17 -66 12 7 60 99 60 115 0 26 -18 5
-43 -49z"/>
<path d="M590 11642 c12 -18 25 -31 28 -27 3 3 -7 18 -23 33 l-28 27 23 -33z"/>
<path d="M640 11578 c0 -18 18 -34 28 -24 3 4 -2 14 -11 23 -16 16 -17 16 -17
1z"/>
<path d="M690 11506 c0 -18 389 -514 444 -565 73 -70 42 -20 -102 161 -81 102
-185 235 -232 296 -47 62 -91 112 -97 112 -7 0 -13 -2 -13 -4z"/>
<path d="M1190 10882 c0 -13 82 -113 129 -156 55 -52 44 -20 -17 50 -72 84
-112 121 -112 106z"/>
<path d="M2001 9749 c-13 -38 -14 -96 -2 -103 4 -3 11 18 14 47 3 28 8 60 12
70 4 9 3 17 -3 17 -6 0 -15 -14 -21 -31z"/>
<path d="M750 10042 c0 -4 9 -13 20 -20 22 -13 27 -3 8 16 -14 14 -28 16 -28
4z"/>
<path d="M1452 9855 c31 -30 62 -55 70 -55 7 1 -14 25 -47 55 -78 71 -97 71
-23 0z"/>
<path d="M3233 9250 c-41 -17 -24 -29 37 -27 53 2 63 -1 83 -24 12 -14 35 -33
50 -43 15 -9 25 -21 22 -26 -11 -17 -48 -11 -94 15 -67 39 -94 31 -74 -20 3
-10 28 -28 55 -40 105 -49 183 23 106 97 l-33 31 35 -20 c32 -17 35 -23 38
-71 3 -56 17 -67 32 -26 26 67 6 111 -67 148 -35 18 -152 21 -190 6z"/>
<path d="M3255 8790 c-9 -15 2 -28 46 -51 46 -23 102 -22 107 2 2 14 -24 25
-130 55 -9 3 -19 0 -23 -6z"/>
<path d="M3273 8688 c2 -7 12 -13 22 -13 10 0 20 6 23 13 2 7 -6 12 -23 12
-17 0 -25 -5 -22 -12z"/>
<path d="M2052 9321 c2 -14 9 -26 16 -29 17 -5 15 10 -3 34 -15 18 -15 18 -13
-5z"/>
<path d="M2080 9129 c0 -11 38 -117 50 -139 23 -43 20 -11 -5 56 -22 59 -45
101 -45 83z"/>
<path d="M1636 9162 c-6 -11 57 -34 130 -48 43 -8 45 10 3 31 -39 21 -124 31
-133 17z"/>
<path d="M1630 8982 c0 -14 26 -22 73 -22 29 1 37 3 27 9 -25 14 -100 24 -100
13z"/>
<path d="M1040 8873 c0 -19 253 -43 263 -26 7 11 -35 18 -175 29 -58 4 -88 3
-88 -3z"/>
<path d="M1720 8630 c0 -13 70 -13 90 0 11 7 0 10 -37 10 -29 0 -53 -4 -53
-10z"/>
<path d="M2690 8331 c0 -26 50 -161 60 -161 4 0 0 28 -10 63 -10 34 -21 74
-24 90 -7 31 -26 37 -26 8z"/>
<path d="M3344 8037 c-39 -29 -101 -68 -140 -87 -58 -30 -65 -35 -43 -38 49
-6 134 36 203 99 61 57 78 79 58 79 -5 0 -40 -24 -78 -53z"/>
<path d="M1690 8461 c0 -5 9 -7 20 -4 11 3 20 7 20 9 0 2 -9 4 -20 4 -11 0
-20 -4 -20 -9z"/>
<path d="M3843 7254 c4 -11 16 -86 28 -169 23 -159 38 -213 39 -135 0 86 -43
304 -62 316 -6 4 -8 -1 -5 -12z"/>
<path d="M3790 6778 c0 -27 30 -121 41 -132 12 -12 13 -15 -15 87 -16 54 -26
72 -26 45z"/>
<path d="M3350 7676 c0 -25 5 -48 10 -51 6 -4 10 13 10 44 0 28 -4 51 -10 51
-5 0 -10 -20 -10 -44z"/>
<path d="M3420 7549 c0 -29 39 -278 50 -314 23 -81 4 138 -26 303 -7 35 -24
44 -24 11z"/>
<path d="M3470 7181 c0 -4 4 -31 10 -60 5 -28 21 -158 35 -289 27 -249 41
-351 50 -360 11 -12 4 104 -20 288 -13 107 -29 240 -34 296 -6 56 -13 108 -17
117 -6 18 -24 23 -24 8z"/>
<path d="M3467 6818 c3 -24 9 -61 13 -83 l8 -40 1 36 c1 51 -10 129 -19 129
-5 0 -6 -19 -3 -42z"/>
<path d="M3170 6638 c0 -29 29 -168 39 -186 10 -16 10 -16 11 1 0 27 -31 170
-41 187 -7 13 -8 13 -9 -2z"/>
<path d="M3300 6619 c0 -16 10 -73 22 -124 16 -73 26 -96 40 -101 29 -9 32 1
14 46 -9 22 -21 62 -26 88 -20 90 -31 122 -40 122 -6 0 -10 -14 -10 -31z"/>
<path d="M4367 7082 c-21 -22 -21 -32 -4 -32 14 0 47 31 47 43 0 14 -27 7 -43
-11z"/>
<path d="M4470 7085 c-17 -20 9 -21 36 0 19 14 19 14 -2 15 -12 0 -27 -7 -34
-15z"/>
<path d="M4680 6616 c0 -18 54 -49 78 -44 12 2 5 11 -23 28 -54 34 -55 34 -55
16z"/>
<path d="M2756 6843 c7 -27 74 -116 81 -109 2 2 -7 19 -20 39 -13 19 -30 49
-37 66 -15 38 -33 41 -24 4z"/>
<path d="M4092 6382 c-7 -5 -22 -51 -32 -103 -27 -133 -72 -472 -68 -517 l3
-37 280 -48 c154 -26 290 -45 301 -42 12 3 24 11 27 19 7 18 73 389 87 484 7
53 7 79 -1 94 -14 26 -23 13 -33 -47 -15 -88 -88 -432 -97 -462 -13 -42 -21
-42 -265 -3 -194 32 -218 39 -228 66 -12 31 -6 133 15 250 11 66 24 156 29
202 11 123 3 119 212 98 95 -9 209 -23 253 -32 44 -8 95 -17 114 -21 29 -5 33
-3 29 13 -2 15 -18 22 -68 31 -242 45 -532 73 -558 55z"/>
<path d="M4921 6205 c-28 -91 -122 -581 -115 -599 7 -19 10 -20 189 -51 82
-14 185 -35 229 -45 43 -11 90 -20 103 -20 73 0 100 58 188 409 41 162 45 185
32 199 -21 20 -34 9 -41 -35 -4 -21 -25 -113 -47 -205 l-41 -168 -53 0 c-30 0
-56 4 -60 9 -3 6 8 25 24 44 43 49 53 82 46 153 -5 41 -3 64 4 68 6 4 11 14
11 23 0 15 -2 14 -18 0 -24 -22 -32 -22 -105 9 -52 22 -72 26 -130 21 -59 -4
-69 -2 -78 14 -11 22 -39 25 -39 5 0 -7 7 -19 15 -26 22 -18 18 -34 -15 -58
-32 -24 -65 -113 -76 -208 -6 -46 -4 -54 9 -54 23 0 37 31 37 82 0 67 18 116
50 140 17 12 30 27 30 34 0 19 78 37 129 30 58 -8 91 -30 91 -60 0 -15 7 -26
20 -29 28 -7 35 -32 21 -78 -8 -27 -23 -46 -44 -59 -50 -31 -137 -23 -137 12
0 4 11 8 24 8 32 0 53 26 39 48 -28 46 -103 -4 -86 -58 4 -14 8 -47 8 -75 1
-38 5 -51 17 -53 16 -3 26 5 52 43 14 19 14 19 62 -2 27 -12 63 -26 79 -31 26
-8 30 -13 27 -42 -4 -53 -19 -63 -77 -56 -63 8 -247 49 -344 78 l-73 22 6 65
c8 72 92 501 101 509 8 8 122 -16 304 -65 150 -40 199 -47 161 -22 -8 5 -44
18 -80 30 -70 22 -404 109 -420 109 -5 0 -18 -29 -29 -65z"/>
<path d="M4307 6213 c-12 -11 -8 -33 6 -33 8 0 22 9 32 20 18 19 17 20 -7 20
-13 0 -28 -3 -31 -7z"/>
<path d="M4780 6174 c0 -31 23 -28 28 4 2 15 -2 22 -12 22 -11 0 -16 -9 -16
-26z"/>
<path d="M4488 6169 c-21 -12 -23 -35 -4 -42 19 -8 60 15 64 36 4 20 -31 23
-60 6z"/>
<path d="M4178 6164 c-3 -5 0 -52 8 -104 11 -81 17 -98 39 -117 48 -42 135
-21 135 33 0 36 -18 64 -40 64 -14 0 -20 -7 -20 -24 0 -13 5 -26 12 -28 19 -7
-1 -28 -26 -28 -57 0 -78 91 -30 129 49 39 149 21 192 -34 43 -55 37 -136 -13
-169 -12 -8 -51 -18 -86 -22 -111 -12 -139 -33 -73 -54 46 -15 125 -8 159 14
14 9 38 35 53 56 21 30 34 39 62 42 42 4 43 17 4 39 -19 10 -34 31 -45 63 -25
69 -43 91 -92 115 -51 25 -94 27 -144 6 -49 -21 -68 -19 -80 7 -5 12 -12 18
-15 12z"/>
<path d="M5165 6069 c-4 -6 -4 -13 -1 -16 8 -8 36 5 36 17 0 13 -27 13 -35 -1z"/>
<path d="M4134 5976 c-14 -11 -16 -18 -8 -26 15 -15 54 4 54 25 0 19 -21 19
-46 1z"/>
<path d="M5047 5894 c-15 -15 -6 -24 23 -24 17 0 30 5 30 10 0 6 -4 10 -9 10
-5 0 -16 2 -23 5 -8 3 -17 2 -21 -1z"/>
<path d="M4722 5818 c2 -12 11 -24 21 -26 24 -5 22 25 -4 38 -18 10 -20 9 -17
-12z"/>
<path d="M4434 5786 c-9 -23 0 -51 16 -51 10 0 15 10 15 29 0 32 -21 47 -31
22z"/>
<path d="M4097 5603 c-14 -13 -7 -42 12 -52 14 -8 22 -7 31 4 21 26 -20 72
-43 48z"/>
<path d="M4397 5543 c-14 -13 -6 -33 12 -33 21 0 45 23 34 33 -8 9 -38 9 -46
0z"/>
<path d="M4647 5477 c-8 -20 9 -41 27 -34 23 9 21 47 -3 47 -10 0 -21 -6 -24
-13z"/>
<path d="M4027 5463 c-38 -38 84 -418 224 -693 67 -133 107 -188 128 -176 16
10 28 64 61 261 17 99 42 242 56 318 14 75 24 156 22 180 l-3 42 -70 6 c-38 4
-128 18 -200 32 -170 32 -211 38 -218 30z m247 -89 c196 -37 186 -31 186 -106
0 -35 -7 -103 -15 -153 -28 -165 -77 -400 -84 -408 -4 -4 -15 1 -23 10 -19 21
-112 207 -153 306 -29 70 -105 356 -98 370 7 12 39 8 187 -19z"/>
<path d="M4187 5314 c-4 -4 -7 -23 -7 -43 0 -20 -5 -55 -10 -79 -13 -57 9
-115 41 -110 12 2 27 11 33 21 9 15 7 22 -11 34 -44 29 -15 75 36 58 31 -10
41 -53 39 -185 -2 -140 6 -170 49 -170 25 0 26 1 18 48 -4 26 -12 104 -19 174
-6 70 -15 130 -19 134 -4 4 7 23 25 41 44 45 26 65 -27 29 -62 -42 -119 -30
-113 25 3 23 -20 38 -35 23z"/>
<path d="M4877 5463 c-14 -13 -6 -33 12 -33 25 0 38 20 20 31 -17 11 -24 11
-32 2z"/>
<path d="M5185 5390 c-3 -5 -3 -15 0 -20 7 -12 45 5 45 20 0 13 -37 13 -45 0z"/>
<path d="M4751 5326 c-22 -27 -179 -788 -168 -818 2 -8 17 1 40 24 30 29 37
44 37 75 0 83 122 627 146 653 12 12 37 10 196 -18 100 -18 187 -37 192 -42 6
-6 -7 -34 -37 -78 -58 -85 -113 -149 -121 -141 -9 9 -26 120 -20 130 3 5 13 9
23 9 22 0 45 25 36 40 -10 16 -45 12 -72 -10 -35 -27 -99 -27 -129 1 -26 25
-58 19 -75 -14 -16 -28 -55 -203 -69 -302 -6 -44 -14 -96 -17 -115 -6 -32 -5
-34 12 -20 24 20 35 52 51 159 23 153 68 221 145 221 30 0 42 -6 55 -25 17
-26 12 -41 -18 -63 -28 -20 -23 -52 7 -52 14 0 25 -3 25 -7 0 -25 -166 -210
-245 -273 -68 -54 -78 -70 -46 -70 39 0 199 149 336 315 93 112 241 333 229
343 -5 5 -61 16 -124 26 -63 10 -169 29 -235 42 -141 28 -139 28 -154 10z m85
-224 c-8 -9 -19 -13 -22 -9 -10 9 16 38 28 31 6 -4 4 -13 -6 -22z"/>
<path d="M4575 5110 c-4 -7 -3 -16 3 -22 14 -14 45 -2 40 15 -6 16 -34 21 -43
7z"/>
<path d="M4795 4860 c-8 -13 1 -27 25 -40 25 -14 57 15 39 36 -13 16 -55 19
-64 4z"/>
<path d="M4490 4750 c0 -23 26 -38 41 -23 14 14 0 43 -22 43 -12 0 -19 -7 -19
-20z"/>
<path d="M4470 4486 c0 -29 26 -54 41 -39 13 13 -9 63 -28 63 -7 0 -13 -11
-13 -24z"/>
<path d="M1581 6144 c-1 -69 11 -164 21 -164 6 0 7 31 3 83 -9 96 -23 146 -24
81z"/>
<path d="M1641 5983 c-1 -29 -6 -45 -18 -52 -14 -7 -15 -12 -6 -22 6 -6 19 -9
27 -6 18 7 21 67 6 102 -7 16 -9 11 -9 -22z"/>
<path d="M2214 1626 c-17 -13 -17 -16 -4 -30 8 -8 63 -26 123 -41 59 -14 126
-35 150 -45 45 -21 87 -26 87 -10 0 13 -34 30 -61 30 -13 0 -40 12 -60 26 -21
14 -56 28 -78 31 -24 3 -49 15 -62 29 -25 27 -66 31 -95 10z"/>
<path d="M3420 1326 c0 -32 27 -62 73 -81 52 -21 50 -1 -6 59 -48 51 -67 58
-67 22z"/>
<path d="M3410 1229 c0 -51 25 -94 66 -114 71 -34 78 -9 16 57 -27 29 -53 63
-56 76 -12 36 -26 25 -26 -19z"/>
<path d="M3400 1085 c-19 -51 41 -135 96 -135 31 0 30 11 -2 41 -31 29 -54 71
-54 99 0 29 -29 25 -40 -5z"/>
<path d="M3680 801 c0 -13 81 -84 88 -77 3 4 -12 24 -33 46 -38 39 -55 49 -55
31z"/>
<path d="M3581 559 c-17 -84 2 -98 28 -20 15 45 14 81 -2 81 -8 0 -18 -24 -26
-61z"/>
<path d="M3510 568 c-11 -24 -20 -53 -20 -66 0 -51 57 9 67 71 8 54 -22 51
-47 -5z"/>
<path d="M3651 555 c-24 -63 -25 -75 -11 -75 18 0 50 63 50 98 0 48 -16 39
-39 -23z"/>
<path d="M3802 557 c-15 -18 -26 -67 -15 -67 15 0 53 45 53 63 0 20 -23 23
-38 4z"/>
<path d="M3875 539 c-9 -17 -15 -38 -13 -46 5 -28 38 13 38 48 0 37 -6 37 -25
-2z"/>
<path d="M3940 524 c-13 -33 -13 -34 3 -34 8 0 19 11 25 25 15 33 15 35 -3 35
-9 0 -20 -12 -25 -26z"/>
<path d="M4003 519 c-25 -39 -29 -59 -13 -59 16 0 42 48 38 72 -3 21 -5 20
-25 -13z"/>
<path d="M4146 528 c-3 -13 -6 -27 -6 -33 1 -15 30 27 30 42 0 22 -17 15 -24
-9z"/>
<path d="M4741 404 c-31 -25 -40 -44 -22 -44 13 0 71 50 71 61 0 16 -17 10
-49 -17z"/>
<path d="M3020 4971 c0 -15 38 -56 45 -49 9 9 -21 58 -35 58 -6 0 -10 -4 -10
-9z"/>
<path d="M3103 4878 c-19 -25 -24 -38 -14 -38 11 0 35 39 28 46 -2 3 -9 -1
-14 -8z"/>
<path d="M3128 4830 c-13 -22 -14 -30 -4 -30 11 0 36 39 36 55 0 15 -17 1 -32
-25z"/>
<path d="M3204 4799 c-20 -24 -45 -80 -42 -90 5 -15 59 72 56 89 -3 13 -5 13
-14 1z"/>
<path d="M3216 4732 c-15 -30 -25 -56 -23 -59 7 -6 58 89 54 101 -2 6 -16 -13
-31 -42z"/>
<path d="M3287 4702 c-10 -10 -17 -22 -17 -26 0 -4 -16 -30 -35 -58 -33 -50
-38 -67 -16 -54 15 9 95 146 89 151 -3 3 -12 -3 -21 -13z"/>
<path d="M3386 4692 c-10 -12 -16 -29 -14 -39 3 -15 6 -14 22 9 23 35 17 57
-8 30z"/>
<path d="M3420 4671 c-17 -33 -11 -47 10 -21 11 14 20 28 20 33 0 14 -20 7
-30 -12z"/>
<path d="M3296 4555 c-38 -57 -39 -74 -2 -28 36 45 58 83 48 83 -5 0 -26 -25
-46 -55z"/>
<path d="M3565 4183 c10 -22 39 -107 54 -154 6 -19 11 -90 11 -157 0 -75 4
-122 10 -122 6 0 10 8 10 18 0 11 9 27 20 37 25 23 25 33 1 59 -16 18 -18 28
-11 71 16 91 12 132 -10 138 -15 4 -20 14 -20 37 0 44 -26 90 -51 90 -16 0
-19 -4 -14 -17z"/>
<path d="M3738 4114 c-5 -4 -8 -28 -7 -53 l1 -46 9 34 c11 36 9 77 -3 65z"/>
<path d="M3687 3947 c-4 -10 -7 -28 -6 -40 0 -21 1 -21 10 2 5 14 8 32 7 40
-3 13 -5 13 -11 -2z"/>
<path d="M3669 3464 c-13 -14 -43 -37 -66 -51 -43 -25 -55 -43 -30 -43 20 0
103 55 121 81 31 45 14 54 -25 13z"/>
<path d="M3613 3350 c-36 -21 -41 -30 -19 -30 17 0 77 49 61 50 -5 0 -25 -9
-42 -20z"/>
<path d="M4320 4086 c0 -14 4 -27 9 -30 12 -8 22 20 15 39 -9 23 -24 18 -24
-9z"/>
<path d="M3967 3723 c-4 -3 -7 -38 -7 -77 0 -90 20 -77 27 18 5 61 -1 79 -20
59z"/>
<path d="M4078 3321 c-5 -18 -8 -77 -7 -130 1 -78 3 -90 10 -63 5 18 8 76 7
130 -2 71 -5 88 -10 63z"/>
<path d="M4068 3011 c-5 -18 -8 -86 -7 -150 1 -90 3 -109 10 -83 5 18 8 85 7
150 -2 81 -5 107 -10 83z"/>
<path d="M4050 2568 c0 -35 -3 -94 -6 -133 -3 -45 -2 -65 4 -55 13 20 22 239
11 246 -5 3 -9 -23 -9 -58z"/>
<path d="M2817 2463 c-11 -10 -8 -43 3 -43 6 0 10 11 10 25 0 26 -2 29 -13 18z"/>
<path d="M1685 2299 c-6 -19 0 -38 9 -28 10 12 16 49 7 49 -5 0 -13 -9 -16
-21z"/>
<path d="M4646 1495 c-9 -25 -7 -55 4 -55 14 0 24 50 13 61 -7 7 -12 5 -17 -6z"/>
<path d="M4564 1475 c-16 -12 -17 -14 -2 -15 23 0 48 11 48 21 0 14 -24 11
-46 -6z"/>
<path d="M5347 1651 c-10 -17 -14 -31 -9 -31 15 0 34 28 30 45 -2 12 -8 8 -21
-14z"/>
<path d="M2043 1175 c6 -42 34 -111 42 -103 3 3 -9 77 -20 126 -10 43 -28 24
-22 -23z"/>
<path d="M2174 933 c17 -62 18 -65 28 -55 8 8 7 20 -2 41 -13 33 -35 43 -26
14z"/>
<path d="M4512 1078 c-14 -14 -16 -28 -2 -28 5 0 14 9 20 20 12 22 1 27 -18 8z"/>
<path d="M2310 345 c-13 -14 -20 -28 -17 -32 8 -7 57 35 57 49 0 15 -16 8 -40
-17z"/>
<path d="M690 11950 c25 -50 239 -366 275 -407 35 -41 55 -53 55 -35 0 5 -33
51 -72 103 -40 52 -110 150 -156 216 -82 120 -131 179 -102 123z"/>
<path d="M5543 11123 c-120 -134 -283 -336 -277 -342 7 -7 123 115 223 234
145 173 187 256 54 108z"/>
<path d="M5612 10757 c-109 -105 -226 -207 -433 -378 -52 -43 -46 -63 8 -27
127 85 595 528 558 528 -3 0 -63 -55 -133 -123z"/>
<path d="M5534 9665 c-25 -19 -15 -19 27 0 25 10 29 14 13 15 -11 0 -29 -7
-40 -15z"/>
<path d="M5300 9288 c0 -12 36 -24 93 -31 71 -10 56 6 -23 24 -38 9 -70 12
-70 7z"/>
<path d="M1422 8021 c-88 -22 -115 -41 -56 -41 48 1 136 30 142 48 5 15 4 15
-86 -7z"/>
<path d="M5040 3075 c0 -24 43 -96 115 -190 85 -112 111 -142 120 -133 6 5
-167 272 -198 306 -19 21 -37 29 -37 17z"/>
<path d="M5319 2693 c11 -16 22 -43 26 -60 l7 -33 -65 0 c-86 0 -102 -14 -128
-110 -27 -101 -27 -180 0 -252 13 -32 26 -58 30 -58 5 0 11 30 13 68 3 45 14
84 31 118 33 66 51 80 80 67 15 -7 29 -7 40 -1 24 13 21 -5 -3 -27 -30 -27
-16 -30 19 -4 40 29 55 15 17 -17 -15 -14 -26 -28 -22 -31 3 -4 17 4 30 16 27
26 32 91 8 91 -22 0 -7 24 19 30 23 6 24 10 24 82 -1 79 -13 108 -44 108 -9 0
-34 9 -56 20 -50 25 -49 25 -26 -7z m93 -118 c4 -18 3 -34 -3 -40 -13 -13 -29
12 -29 48 0 37 21 31 32 -8z m-174 -39 c9 -20 8 -29 -7 -48 -10 -13 -21 -33
-25 -45 -4 -11 -14 -27 -23 -35 -14 -11 -15 -10 -10 7 3 11 11 43 17 70 16 70
18 75 28 75 5 0 14 -11 20 -24z"/>
<path d="M4965 2225 l-30 -13 31 -1 c17 -1 37 6 44 14 16 20 -3 20 -45 0z"/>
<path d="M5674 2159 c-10 -17 13 -36 27 -22 12 12 4 33 -11 33 -5 0 -12 -5
-16 -11z"/>
<path d="M5546 2072 c-7 -11 43 -56 52 -47 3 3 -6 17 -20 31 -15 16 -28 22
-32 16z"/>
<path d="M5706 2031 c-4 -6 -18 -11 -32 -11 -30 0 -33 -31 -4 -60 20 -20 28
-84 11 -94 -5 -3 -18 21 -30 54 -12 33 -26 58 -32 55 -5 -4 -9 -52 -9 -108 0
-91 -3 -106 -25 -142 -31 -51 -31 -55 4 -55 40 0 75 32 108 97 22 46 28 74 31
149 4 87 -6 141 -22 115z"/>
</g>
</svg>
